{"glyphs":{"0":{"ha":610,"x_min":0,"x_max":0,"o":"m 284 0 b 105 184 183 0 104 86 b 112 326 106 231 113 279 b 76 498 110 385 92 442 b 59 670 60 554 47 611 b 118 812 69 720 93 768 b 326 996 161 888 226 995 b 505 812 428 996 505 910 b 498 670 505 764 497 717 b 534 498 500 611 518 554 b 551 326 550 442 563 385 b 492 184 541 276 517 228 b 284 0 449 108 385 -1 z m 329 886 b 277 861 308 886 292 873 b 216 782 252 840 232 811 b 167 655 193 743 173 700 b 186 498 159 601 172 549 b 222 341 201 447 218 395 b 220 214 225 299 219 255 b 239 135 220 187 223 158 b 281 110 249 121 264 110 b 333 135 302 110 318 122 b 394 214 358 156 378 185 b 443 341 417 253 437 296 b 424 498 451 394 438 447 b 388 655 409 549 392 601 b 390 782 385 697 391 740 b 371 861 390 809 387 839 b 329 886 361 875 346 886 z "},"1":{"ha":356,"x_min":0,"x_max":0,"o":"m 105 0 b 134 223 93 78 113 148 b 146 421 153 290 161 353 b 101 613 132 485 106 547 b 144 843 94 692 125 767 b 32 786 107 824 69 805 b 58 913 44 828 55 870 b 170 982 96 935 133 958 b 260 982 200 982 230 982 b 219 710 275 886 239 803 b 237 491 202 634 216 565 b 256 272 258 417 273 348 b 215 0 237 179 200 96 b 105 0 178 0 141 0 z "},"2":{"ha":549,"x_min":0,"x_max":0,"o":"m 32 74 b 221 341 88 167 171 244 b 301 608 264 425 268 521 b 384 784 326 668 365 722 b 312 879 398 833 363 880 b 162 829 257 878 207 859 b 107 791 144 816 125 803 b 132 933 120 838 131 884 b 144 941 137 936 139 938 b 309 989 196 973 249 988 b 493 784 420 990 528 901 b 407 559 470 708 429 637 b 340 335 387 483 378 405 b 178 110 297 253 230 185 b 444 110 267 110 355 110 b 444 0 438 72 438 38 b 37 0 308 0 172 0 b 32 74 33 25 31 49 z "},"3":{"ha":510,"x_min":0,"x_max":0,"o":"m 144 0 b 144 0 144 0 144 0 b 59 9 116 1 87 4 b 36 14 50 11 45 12 b 40 127 31 53 33 89 b 72 119 53 124 59 123 b 156 110 100 113 128 110 b 284 164 204 109 250 130 b 359 295 320 199 352 246 b 317 426 367 345 351 389 b 184 484 284 461 234 484 b 120 484 163 484 141 484 b 92 593 109 520 99 556 b 157 593 114 593 135 593 b 246 636 192 593 224 608 b 294 741 269 667 286 705 b 291 842 302 774 307 811 b 204 886 274 874 237 886 b 116 876 174 886 145 882 b 81 868 102 873 95 872 b 84 982 88 907 89 943 b 105 986 93 984 97 985 b 201 996 137 993 169 996 b 387 913 269 996 346 970 b 404 741 424 863 419 797 b 323 542 388 677 367 595 b 424 450 361 517 397 486 b 469 295 459 403 478 353 b 357 96 457 222 407 150 b 158 0 303 38 240 0 b 144 0 153 0 150 0 z "},"4":{"ha":544,"x_min":0,"x_max":0,"o":"m 293 0 b 316 200 283 70 297 133 b 26 200 219 200 123 200 b 45 271 33 223 40 247 b 114 462 82 331 104 391 b 147 626 122 517 127 573 b 345 981 195 755 309 846 b 448 981 380 981 414 981 b 398 645 466 862 401 761 b 451 310 395 530 462 426 b 518 310 474 310 496 310 b 493 200 513 272 503 236 b 426 200 470 200 448 200 b 403 0 406 133 392 70 b 293 0 366 0 330 0 z m 341 310 b 291 679 353 437 276 551 b 187 310 229 563 247 427 b 341 310 238 310 290 310 z "},"5":{"ha":565,"x_min":0,"x_max":0,"o":"m 244 0 b 67 48 182 1 120 15 b 54 56 62 51 59 53 b 79 198 55 105 66 151 b 114 160 91 186 102 173 b 242 110 148 124 195 110 b 368 216 298 110 341 172 b 406 339 391 254 406 297 b 358 462 406 383 387 428 b 294 508 342 481 320 501 b 253 512 281 511 266 512 b 178 501 228 512 203 507 b 166 498 173 500 171 499 b 97 545 143 513 120 529 b 120 767 84 625 93 691 b 165 989 146 841 171 909 b 476 989 269 989 373 989 b 476 879 482 951 482 917 b 269 879 407 879 338 879 b 200 621 245 793 202 712 b 231 622 210 622 221 622 b 299 614 254 622 276 619 b 440 515 355 600 403 559 b 515 345 479 467 513 408 b 463 183 517 288 492 231 b 244 0 415 103 350 0 b 244 0 244 0 244 0 z "},"6":{"ha":579,"x_min":0,"x_max":0,"o":"m 286 0 b 108 184 186 0 107 86 b 115 326 109 231 116 279 b 79 498 113 385 95 442 b 61 670 63 554 50 611 b 121 812 72 720 96 768 b 329 996 164 888 229 997 b 460 971 374 995 417 987 b 477 964 467 968 470 966 b 464 838 480 920 475 880 b 429 861 453 846 441 853 b 331 886 399 879 365 886 b 280 861 311 886 294 873 b 218 782 255 840 235 811 b 168 600 186 726 164 666 b 218 633 182 614 199 626 b 280 644 238 640 259 644 b 470 522 358 646 428 586 b 534 322 509 462 542 393 b 455 122 527 252 491 184 b 286 0 418 59 366 0 z m 289 536 b 232 474 252 536 236 505 b 228 322 225 425 233 372 b 223 157 223 269 213 210 b 279 110 228 131 252 110 b 362 162 314 110 343 133 b 425 322 393 210 419 266 b 378 483 430 378 411 435 b 314 533 363 505 340 525 b 289 536 305 535 296 536 b 289 536 289 536 289 536 z "},"7":{"ha":524,"x_min":0,"x_max":0,"o":"m 44 0 b 149 242 57 91 106 163 b 209 436 183 304 205 365 b 223 631 212 501 206 567 b 343 872 246 718 304 792 b 66 872 251 872 159 872 b 67 982 72 910 72 944 b 470 982 201 982 336 982 b 475 916 474 960 476 938 b 349 666 443 827 383 753 b 324 458 322 599 325 529 b 264 242 322 379 302 312 b 159 0 221 164 172 91 b 44 0 121 0 83 0 z "},"8":{"ha":533,"x_min":0,"x_max":0,"o":"m 228 0 b 56 99 159 1 86 34 b 57 297 27 161 46 233 b 73 447 66 346 67 397 b 107 542 77 480 85 514 b 43 740 46 595 24 664 b 125 910 58 799 89 858 b 274 996 161 962 209 996 b 434 910 337 996 404 967 b 436 740 462 858 449 794 b 375 542 420 677 410 598 b 461 447 409 516 439 483 b 494 297 490 400 503 349 b 400 99 482 227 442 158 b 231 0 357 41 307 0 b 228 0 230 0 229 0 z m 257 484 b 206 465 238 482 220 480 b 185 418 194 453 188 435 b 167 297 177 378 174 337 b 156 181 160 259 151 219 b 229 110 160 140 187 110 b 335 181 275 110 312 144 b 384 297 358 216 376 255 b 362 418 392 339 383 381 b 318 465 352 436 336 453 b 257 484 300 477 278 483 z m 277 886 b 195 835 241 887 214 863 b 153 740 176 807 161 774 b 155 644 145 709 142 674 b 229 593 167 613 196 594 b 296 644 263 593 284 615 b 326 740 308 675 318 707 b 336 835 334 770 341 804 b 277 886 331 867 309 887 b 277 886 277 886 277 886 z "},"9":{"ha":579,"x_min":0,"x_max":0,"o":"m 249 0 b 119 25 204 1 161 9 b 101 32 112 28 108 29 b 114 158 98 76 104 116 b 149 135 126 150 138 143 b 247 110 179 117 213 110 b 299 135 267 110 284 122 b 360 214 324 156 343 185 b 411 396 393 270 414 330 b 361 363 397 382 379 370 b 298 351 341 356 320 352 b 109 473 220 349 151 411 b 44 674 69 534 37 603 b 123 874 51 744 87 812 b 292 996 160 937 213 996 b 470 812 393 996 471 909 b 464 670 470 764 463 717 b 499 498 465 611 483 554 b 517 326 515 442 529 385 b 458 184 507 276 483 228 b 249 0 415 109 350 -1 b 249 0 249 0 249 0 z m 295 886 b 217 834 263 884 234 861 b 154 674 185 785 160 730 b 200 513 148 618 168 561 b 265 463 215 490 239 471 b 290 459 274 461 282 459 b 347 522 327 459 343 491 b 350 674 353 570 345 624 b 356 839 356 727 366 785 b 330 877 353 854 343 869 b 299 886 321 883 310 886 b 295 886 298 886 295 886 z "}," ":{"ha":229,"x_min":0,"x_max":0,"o":""},"!":{"ha":347,"x_min":0,"x_max":0,"o":"m 94 0 b 109 148 89 51 96 98 b 219 148 145 148 182 148 b 204 0 206 98 199 51 b 94 0 167 0 131 0 z m 130 226 b 133 429 148 296 151 359 b 93 604 119 487 98 544 b 120 779 88 664 104 722 b 141 982 139 847 153 911 b 251 982 178 982 215 982 b 230 779 262 911 249 847 b 202 604 214 722 197 664 b 243 429 208 544 229 487 b 240 226 261 359 258 296 b 130 226 204 226 167 226 z "},"\"":{"ha":385,"x_min":0,"x_max":0,"o":"m 58 743 b 90 872 70 786 83 828 b 99 957 93 901 94 929 b 169 1015 107 993 132 1016 b 187 1015 176 1015 180 1015 b 199 953 192 995 196 974 b 193 953 197 953 196 953 b 168 927 179 953 171 940 b 164 890 166 915 165 900 b 201 890 179 890 187 890 b 168 743 196 840 182 791 b 58 743 132 743 95 743 z m 212 743 b 243 872 224 786 236 828 b 253 957 247 901 247 929 b 322 1015 260 993 285 1016 b 340 1015 329 1015 333 1015 b 353 953 345 995 350 974 b 347 953 350 953 349 953 b 322 927 332 953 324 940 b 318 890 319 915 318 900 b 355 890 332 890 340 890 b 321 743 349 840 335 791 b 212 743 285 743 248 743 z "},"#":{"ha":596,"x_min":0,"x_max":0,"o":"m 216 0 b 294 214 223 79 257 145 b 241 214 276 214 258 214 b 163 0 205 145 170 79 b 50 0 125 0 88 0 b 128 214 57 79 92 145 b 29 214 95 214 62 214 b 52 323 39 250 48 286 b 177 323 94 323 136 323 b 192 433 188 360 192 395 b 94 433 160 433 127 433 b 64 543 84 470 73 506 b 189 543 106 543 147 543 b 247 756 189 622 211 686 b 360 756 285 756 322 756 b 302 543 324 686 302 622 b 355 543 320 543 337 543 b 413 756 355 622 377 686 b 526 756 450 756 488 756 b 468 543 490 686 468 622 b 566 543 501 543 533 543 b 596 433 576 506 587 470 b 471 433 555 433 513 433 b 456 323 471 395 467 360 b 555 323 489 323 522 323 b 532 214 551 286 542 250 b 407 214 490 214 448 214 b 329 0 370 145 336 79 b 216 0 291 0 253 0 z m 343 323 b 358 433 354 360 358 395 b 306 433 341 433 323 433 b 290 323 305 395 301 360 b 343 323 308 323 325 323 z "},"$":{"ha":539,"x_min":0,"x_max":0,"o":"m 213 -151 b 174 0 200 -100 184 -51 b 51 44 130 8 90 21 b 38 52 46 47 43 48 b 63 194 38 101 49 147 b 97 156 74 182 86 169 b 227 106 132 120 179 106 b 380 228 294 105 362 163 b 214 495 412 347 295 431 b 45 791 121 571 6 657 b 122 926 60 841 88 888 b 218 990 148 955 180 979 b 178 1144 207 1042 191 1092 b 289 1144 215 1144 252 1144 b 328 993 301 1093 317 1044 b 450 949 371 985 411 971 b 463 941 455 946 458 944 b 439 798 463 892 452 846 b 404 837 427 811 416 824 b 275 887 371 874 322 887 b 156 791 221 888 171 842 b 274 572 129 699 212 626 b 490 228 376 484 534 385 b 398 74 474 171 439 116 b 284 2 366 41 329 14 b 323 -151 294 -50 311 -100 b 213 -151 286 -151 250 -151 z "},"%":{"ha":753,"x_min":0,"x_max":0,"o":"m 528 -7 b 403 105 466 -7 410 44 b 426 269 397 161 414 216 b 442 434 438 324 440 378 b 534 546 443 489 471 546 b 688 434 601 546 659 489 b 709 269 715 381 722 326 b 649 105 697 214 673 158 b 528 -7 626 54 592 -7 b 528 -7 528 -7 528 -7 z m 564 436 b 554 404 561 433 556 424 b 536 269 550 359 545 314 b 515 135 526 226 512 180 b 526 103 516 115 522 106 b 549 135 536 111 543 123 b 600 270 571 178 590 224 b 588 404 609 315 608 361 b 564 436 583 416 575 428 z m 71 0 b 221 264 98 101 165 178 b 298 491 267 335 287 408 b 371 711 309 571 328 642 b 526 982 427 800 498 879 b 645 982 565 982 605 982 b 490 711 617 879 546 800 b 417 491 447 642 428 571 b 340 264 406 408 386 335 b 190 0 284 178 217 101 b 71 0 150 0 111 0 z m 181 436 b 28 548 115 436 57 493 b 6 713 0 601 -6 656 b 67 877 18 768 43 824 b 188 989 90 928 123 989 b 313 877 249 989 306 938 b 290 713 319 822 301 765 b 274 548 278 658 276 604 b 181 436 272 493 244 436 b 181 436 181 436 181 436 z m 190 879 b 166 847 180 871 172 859 b 116 713 145 805 126 759 b 127 578 106 668 107 621 b 151 547 133 566 140 554 b 162 578 154 549 160 559 b 180 713 166 623 170 668 b 201 847 190 756 203 802 b 190 879 200 867 193 876 z "},"&":{"ha":871,"x_min":0,"x_max":0,"o":"m 275 -7 b 81 71 206 -7 130 19 b 47 259 32 124 30 193 b 114 459 63 326 82 398 b 209 581 138 505 171 545 b 141 799 149 645 118 712 b 348 989 165 891 245 990 b 525 941 410 988 471 974 b 538 933 530 938 533 936 b 513 791 537 884 526 838 b 478 829 501 804 490 816 b 350 879 445 865 397 878 b 251 799 306 880 262 841 b 315 619 232 731 272 667 b 616 321 411 515 530 434 b 641 461 639 366 645 411 b 638 484 640 470 639 475 b 749 484 675 484 712 484 b 753 452 750 471 751 465 b 673 230 761 363 730 297 b 833 0 720 146 765 69 b 690 0 785 0 738 0 b 582 138 648 42 613 87 b 564 122 576 132 570 127 b 275 -7 481 54 387 -8 z m 300 496 b 156 259 235 428 179 351 b 273 103 136 179 184 102 b 506 199 359 104 439 148 b 534 224 515 206 524 215 b 300 496 473 333 392 413 z "},"'":{"ha":232,"x_min":0,"x_max":0,"o":"m 58 769 b 90 898 70 812 83 854 b 99 983 93 927 94 955 b 169 1041 107 1019 132 1042 b 187 1041 176 1041 180 1041 b 199 979 192 1020 196 1000 b 193 979 197 979 196 979 b 168 953 179 979 171 966 b 164 916 166 941 165 926 b 201 916 179 916 187 916 b 168 769 196 865 182 817 b 58 769 132 769 95 769 z "},"(":{"ha":313,"x_min":0,"x_max":0,"o":"m 163 -111 b 152 -95 158 -104 156 -101 b 42 195 90 -4 34 84 b 53 471 50 288 73 377 b 33 743 34 564 4 652 b 160 1030 64 841 132 928 b 164 1047 162 1036 163 1040 b 285 1047 205 1047 245 1047 b 273 1008 282 1034 278 1020 b 151 761 241 922 184 845 b 163 471 114 663 142 570 b 154 177 184 371 156 276 b 256 -72 152 83 201 3 b 284 -111 266 -85 275 -98 b 163 -111 244 -111 203 -111 z "},")":{"ha":311,"x_min":0,"x_max":0,"o":"m 21 -111 b 29 -72 24 -98 27 -85 b 43 42 36 -35 38 4 b 79 177 48 89 61 134 b 145 471 118 274 167 366 b 78 761 125 568 77 659 b 52 1008 79 843 92 931 b 29 1047 45 1021 37 1034 b 150 1047 70 1047 110 1047 b 160 1030 154 1040 156 1037 b 190 743 209 937 190 842 b 256 471 191 649 236 564 b 198 195 277 372 235 285 b 158 40 178 145 163 95 b 146 -94 154 -5 153 -50 b 142 -111 144 -101 144 -104 b 21 -111 102 -111 61 -111 z "},"*":{"ha":275,"x_min":0,"x_max":0,"o":"m 167 847 b 197 795 177 830 187 812 b 124 751 173 780 149 765 b 105 810 118 770 111 790 b 53 751 88 790 70 770 b 4 795 37 765 20 780 b 64 847 24 812 44 829 b 0 863 42 852 21 858 b 32 934 12 886 23 910 b 94 908 53 926 74 917 b 87 976 95 931 92 954 b 162 976 112 976 137 976 b 158 908 164 953 162 930 b 223 934 180 916 201 925 b 237 863 230 911 234 887 b 166 847 214 858 190 852 z "},"+":{"ha":499,"x_min":0,"x_max":0,"o":"m 192 189 b 205 299 200 226 206 261 b 95 299 168 299 131 299 b 74 409 91 337 83 373 b 184 409 110 409 147 409 b 156 519 174 446 163 482 b 266 519 192 519 229 519 b 294 409 273 482 284 446 b 404 409 331 409 367 409 b 425 299 414 373 422 337 b 315 299 388 299 352 299 b 302 189 316 261 310 226 b 192 189 265 189 228 189 z "},",":{"ha":265,"x_min":0,"x_max":0,"o":"m 196 148 b 179 18 185 104 177 62 b 184 -67 181 -10 187 -39 b 119 -125 181 -104 155 -126 b 101 -125 111 -125 108 -125 b 84 -63 95 -104 89 -84 b 90 -63 86 -63 87 -63 b 111 -37 103 -63 110 -54 b 108 0 112 -25 109 -10 b 71 0 93 0 86 0 b 86 148 66 51 73 98 b 196 148 122 148 159 148 z "},"-":{"ha":464,"x_min":0,"x_max":0,"o":"m 77 344 b 56 455 73 382 65 418 b 387 455 166 455 277 455 b 408 344 397 418 405 382 b 77 344 298 344 187 344 z "},".":{"ha":265,"x_min":0,"x_max":0,"o":"m 71 0 b 86 148 66 51 73 98 b 196 148 122 148 159 148 b 181 0 183 98 176 51 b 71 0 144 0 108 0 z "},"/":{"ha":401,"x_min":0,"x_max":0,"o":"m -6 0 b 103 264 8 97 64 176 b 135 491 136 339 138 411 b 177 718 132 573 141 644 b 278 982 218 805 270 884 b 391 982 316 982 353 982 b 290 718 383 884 331 805 b 248 491 254 644 245 573 b 216 264 251 411 249 339 b 107 0 177 176 121 97 b -6 0 70 0 32 0 z "},":":{"ha":265,"x_min":0,"x_max":0,"o":"m 71 0 b 86 148 66 51 73 98 b 196 148 122 148 159 148 b 181 0 183 98 176 51 b 71 0 144 0 108 0 z m 86 519 b 71 667 73 568 66 616 b 181 667 108 667 144 667 b 196 519 176 616 183 568 b 86 519 159 519 123 519 z "},";":{"ha":240,"x_min":0,"x_max":0,"o":"m 86 519 b 71 667 73 568 66 616 b 181 667 108 667 144 667 b 196 519 176 616 183 568 b 86 519 159 519 123 519 z m 196 148 b 179 18 185 104 177 62 b 184 -67 181 -10 187 -39 b 119 -125 181 -104 155 -126 b 101 -125 111 -125 108 -125 b 84 -63 95 -104 89 -84 b 90 -63 86 -63 87 -63 b 111 -37 103 -63 110 -54 b 108 0 112 -25 109 -10 b 71 0 93 0 86 0 b 86 148 66 51 73 98 b 196 148 122 148 159 148 z "},"<":{"ha":386,"x_min":0,"x_max":0,"o":"m 183 182 b 44 347 141 241 97 297 b 172 513 91 399 131 456 b 328 513 224 513 276 513 b 200 347 286 456 247 399 b 339 182 252 297 296 241 b 183 182 287 182 235 182 z "},"=":{"ha":522,"x_min":0,"x_max":0,"o":"m 103 377 b 74 487 93 414 82 450 b 404 487 184 487 294 487 b 434 377 413 450 424 414 b 103 377 323 377 213 377 z m 110 201 b 116 311 117 239 120 273 b 447 311 226 311 337 311 b 441 201 451 273 448 239 b 110 201 331 201 220 201 z "},">":{"ha":450,"x_min":0,"x_max":0,"o":"m 56 182 b 247 347 122 234 189 286 b 44 513 183 407 113 459 b 200 513 96 513 148 513 b 403 347 268 459 338 407 b 211 182 344 286 278 234 b 56 182 159 182 107 182 z "},"?":{"ha":472,"x_min":0,"x_max":0,"o":"m 109 0 b 124 148 104 51 111 98 b 234 148 160 148 197 148 b 219 0 221 98 214 51 b 109 0 182 0 146 0 z m 145 226 b 152 253 148 237 150 242 b 226 611 178 371 168 502 b 318 773 254 664 301 713 b 237 879 335 829 296 879 b 88 829 182 879 134 859 b 33 791 70 816 52 804 b 57 933 46 838 57 884 b 69 941 62 936 64 938 b 234 989 121 973 174 989 b 428 773 351 990 465 896 b 328 555 406 697 357 630 b 262 253 292 460 285 353 b 255 226 259 242 258 237 b 145 226 219 226 182 226 z "},"@":{"ha":828,"x_min":0,"x_max":0,"o":"m 742 143 b 582 -7 724 68 664 -6 b 479 44 543 -7 502 12 b 468 29 475 38 472 34 b 377 -7 443 3 411 -6 b 263 52 335 -8 289 17 b 242 109 250 68 243 88 b 245 140 241 119 242 129 b 281 287 255 189 273 237 b 276 410 287 329 284 368 b 390 564 258 490 303 564 b 584 410 473 564 565 492 b 553 143 603 315 578 234 b 584 103 549 123 563 103 b 632 143 605 103 627 122 b 661 420 658 239 683 320 b 385 653 632 538 509 653 b 222 585 326 653 261 631 b 194 420 181 538 180 477 b 201 279 205 373 209 327 b 165 137 193 231 177 184 b 409 -96 130 0 293 -98 b 543 -42 459 -95 507 -81 b 560 -24 550 -35 553 -31 b 604 -155 573 -68 590 -112 b 436 -206 555 -192 496 -204 b 169 -105 339 -206 245 -164 b 55 137 94 -46 28 36 b 91 279 67 184 83 231 b 84 420 99 327 95 373 b 144 663 61 512 70 597 b 410 763 215 726 315 763 b 629 663 496 764 573 727 b 770 420 688 595 749 508 b 742 143 793 320 768 239 z m 418 454 b 385 410 394 456 381 431 b 356 147 405 317 381 237 b 390 103 349 124 368 103 b 445 147 415 103 438 124 b 474 410 469 237 493 317 b 418 454 468 434 443 455 z "},"A":{"ha":615,"x_min":0,"x_max":0,"o":"m 464 0 b 446 257 432 86 443 168 b 247 257 379 257 313 257 b 152 0 207 173 158 95 b 39 0 114 0 77 0 b 138 264 46 98 98 177 b 171 491 172 339 176 410 b 205 718 166 572 171 643 b 304 982 244 805 296 884 b 403 982 337 982 370 982 b 422 710 437 891 421 805 b 490 491 423 630 454 562 b 558 272 526 420 557 353 b 577 0 559 177 543 91 b 464 0 539 0 502 0 z m 433 367 b 310 703 395 483 315 578 b 281 535 288 648 279 595 b 282 367 282 479 289 424 b 433 367 332 367 383 367 z "},"B":{"ha":621,"x_min":0,"x_max":0,"o":"m 81 0 b 123 272 67 96 103 179 b 104 491 139 348 125 417 b 85 711 83 565 68 634 b 127 982 105 803 141 886 b 294 982 182 982 238 982 b 479 908 361 982 436 963 b 495 723 522 854 509 784 b 465 603 485 683 476 642 b 435 530 458 577 450 553 b 537 440 474 508 511 477 b 575 287 570 393 585 342 b 465 84 562 214 517 139 b 383 22 441 59 415 37 b 271 0 347 6 309 1 b 81 0 207 0 144 0 z m 267 110 b 396 156 314 110 362 123 b 466 287 434 190 458 240 b 427 418 475 335 464 383 b 297 464 393 451 344 465 b 221 464 272 464 247 464 b 236 287 237 405 247 348 b 191 110 225 227 203 170 b 267 110 217 110 242 110 z m 250 573 b 345 611 286 574 323 580 b 385 723 367 643 375 685 b 384 836 393 757 404 803 b 295 872 366 865 327 872 b 236 872 275 872 256 872 b 193 573 216 770 174 679 b 250 573 212 573 231 573 z "},"C":{"ha":567,"x_min":0,"x_max":0,"o":"m 287 0 b 118 67 226 0 161 23 b 85 228 74 112 70 170 b 106 373 98 275 109 323 b 79 498 103 415 91 457 b 53 615 68 536 57 575 b 73 767 47 667 59 717 b 174 929 90 828 129 885 b 330 995 216 970 270 996 b 506 948 391 995 452 980 b 519 940 511 944 514 943 b 493 797 518 890 507 844 b 459 835 482 809 470 822 b 332 885 426 872 378 885 b 183 767 266 886 201 831 b 163 615 169 717 158 667 b 189 498 167 575 178 536 b 216 373 201 457 213 415 b 195 228 219 323 208 275 b 284 110 177 165 219 110 b 433 160 339 110 388 130 b 489 199 452 173 470 186 b 463 56 475 151 464 105 b 451 48 458 53 456 51 b 287 0 399 16 347 1 b 287 0 287 0 287 0 z "},"D":{"ha":626,"x_min":0,"x_max":0,"o":"m 81 0 b 123 272 67 96 103 179 b 104 491 139 348 125 417 b 85 711 83 565 68 634 b 127 982 105 803 141 886 b 294 982 182 982 238 982 b 513 804 399 982 503 915 b 516 662 517 757 513 709 b 554 492 519 603 538 547 b 570 322 570 437 583 380 b 506 187 559 274 533 228 b 396 56 474 140 439 93 b 247 0 353 18 304 2 b 81 0 192 0 136 0 z m 252 110 b 347 147 288 110 320 125 b 427 247 380 175 406 211 b 444 492 472 326 469 404 b 409 628 431 537 416 581 b 401 736 403 664 404 700 b 375 835 399 770 396 806 b 295 872 356 861 326 872 b 236 872 275 872 256 872 b 188 667 223 803 195 737 b 214 491 181 607 197 549 b 240 315 230 433 246 375 b 191 110 233 245 205 179 b 249 110 211 110 230 110 b 252 110 250 110 251 110 z "},"E":{"ha":540,"x_min":0,"x_max":0,"o":"m 81 0 b 123 272 67 96 103 179 b 104 491 139 348 125 417 b 85 711 83 565 68 634 b 127 982 105 803 141 886 b 497 982 250 982 373 982 b 496 872 502 944 502 910 b 236 872 410 872 323 872 b 195 711 226 818 207 766 b 198 551 183 656 186 605 b 402 551 266 551 334 551 b 432 441 412 514 423 477 b 228 441 364 441 296 441 b 234 275 241 385 245 332 b 191 110 222 220 203 166 b 451 110 278 110 365 110 b 451 0 446 72 445 38 b 81 0 328 0 204 0 z "},"F":{"ha":531,"x_min":0,"x_max":0,"o":"m 127 982 b 497 982 250 982 373 982 b 496 872 502 944 502 910 b 235 872 409 872 322 872 b 194 711 224 818 206 766 b 196 551 182 656 184 605 b 402 551 265 551 334 551 b 432 441 412 514 423 477 b 226 441 364 441 295 441 b 218 220 245 363 240 297 b 190 0 198 146 178 78 b 81 0 154 0 117 0 b 123 272 67 96 103 179 b 104 491 139 348 125 417 b 85 711 83 565 68 634 b 127 982 105 803 141 886 z "},"G":{"ha":626,"x_min":0,"x_max":0,"o":"m 287 0 b 118 67 226 0 161 23 b 85 228 74 112 70 170 b 106 373 98 275 109 323 b 79 498 103 415 91 457 b 53 615 68 536 57 575 b 73 767 47 667 59 717 b 174 929 90 828 129 885 b 330 995 216 970 270 996 b 506 948 391 995 452 980 b 519 940 511 944 514 943 b 493 797 518 890 507 844 b 459 835 482 809 470 822 b 332 885 426 872 378 885 b 240 851 299 886 266 872 b 183 767 214 830 192 800 b 163 615 169 717 158 667 b 189 498 167 575 178 536 b 216 373 201 457 213 415 b 195 228 219 323 208 275 b 207 144 189 199 188 169 b 284 110 225 120 256 111 b 399 138 323 109 363 120 b 438 416 421 233 455 317 b 302 416 392 416 347 416 b 273 524 294 452 283 488 b 519 524 355 524 437 524 b 551 304 540 452 562 381 b 500 85 539 230 509 160 b 490 76 496 81 494 80 b 287 0 428 28 366 2 b 287 0 287 0 287 0 z "},"H":{"ha":667,"x_min":0,"x_max":0,"o":"m 429 0 b 458 220 418 78 437 146 b 466 441 479 297 484 363 b 228 441 387 441 307 441 b 220 220 246 363 241 297 b 191 0 199 146 180 78 b 81 0 155 0 118 0 b 123 272 67 96 103 179 b 104 491 139 348 125 417 b 85 711 83 565 68 634 b 127 982 105 803 141 886 b 237 982 163 982 200 982 b 209 766 248 906 230 839 b 198 551 189 692 181 627 b 436 551 277 551 357 551 b 448 766 419 627 427 692 b 475 982 468 839 486 906 b 585 982 512 982 548 982 b 543 711 599 886 563 803 b 562 491 527 634 541 565 b 581 272 583 417 598 348 b 540 0 561 179 525 96 b 429 0 503 0 466 0 z "},"I":{"ha":318,"x_min":0,"x_max":0,"o":"m 81 0 b 123 272 67 96 103 179 b 104 491 139 348 125 417 b 85 711 83 565 68 634 b 127 982 105 803 141 886 b 237 982 163 982 200 982 b 195 711 251 886 215 803 b 214 491 178 634 193 565 b 233 272 235 417 249 348 b 191 0 213 179 177 96 b 81 0 155 0 118 0 z "},"J":{"ha":551,"x_min":0,"x_max":0,"o":"m 196 0 b 69 24 152 1 111 9 b 51 31 62 27 58 29 b 63 156 48 74 53 114 b 98 135 75 149 87 142 b 194 110 129 118 160 111 b 286 145 227 109 260 124 b 343 228 312 166 334 195 b 354 432 362 297 371 361 b 311 608 341 491 319 548 b 360 989 296 739 379 856 b 470 989 396 989 433 989 b 422 608 489 856 406 739 b 465 432 429 548 451 491 b 453 228 481 361 472 297 b 352 67 436 167 397 110 b 196 0 310 25 256 -1 z "},"K":{"ha":586,"x_min":0,"x_max":0,"o":"m 434 0 b 361 206 394 65 376 131 b 283 412 347 282 325 347 b 240 315 272 378 258 346 b 191 0 226 207 175 111 b 81 0 155 0 118 0 b 123 272 67 96 103 179 b 104 491 139 348 125 417 b 85 711 83 565 68 634 b 127 982 105 803 141 886 b 237 982 163 982 200 982 b 210 769 248 907 230 841 b 196 557 190 696 181 632 b 454 982 245 721 397 822 b 577 982 495 982 536 982 b 434 759 547 897 489 829 b 314 536 379 690 337 622 b 470 268 376 452 445 372 b 555 0 494 173 502 85 b 434 0 515 0 474 0 z "},"L":{"ha":463,"x_min":0,"x_max":0,"o":"m 81 0 b 123 272 67 96 103 179 b 104 491 139 348 125 417 b 85 711 83 565 68 634 b 127 982 105 803 141 886 b 235 982 163 982 199 982 b 202 744 248 898 223 824 b 198 546 184 676 181 614 b 240 348 214 481 240 416 b 190 110 241 267 206 189 b 451 110 277 110 364 110 b 451 0 446 72 445 38 b 81 0 328 0 204 0 z "},"M":{"ha":747,"x_min":0,"x_max":0,"o":"m 511 0 b 546 244 498 86 525 162 b 535 489 568 331 559 404 b 493 255 538 404 530 332 b 396 21 456 178 409 107 b 300 21 364 21 332 21 b 285 255 275 99 285 175 b 215 489 285 342 254 413 b 226 244 239 404 248 331 b 191 0 205 162 178 86 b 81 0 155 0 118 0 b 123 272 67 96 103 179 b 104 491 139 348 125 417 b 85 711 83 565 68 634 b 127 982 105 803 141 886 b 232 982 162 982 197 982 b 258 800 255 922 260 864 b 264 637 256 746 251 691 b 397 292 293 515 385 420 b 422 474 420 352 425 410 b 428 637 420 528 416 583 b 561 982 458 759 550 854 b 667 982 596 982 631 982 b 625 711 681 886 645 803 b 644 491 609 634 623 565 b 663 272 665 417 679 348 b 621 0 643 179 607 96 b 511 0 585 0 548 0 z "},"N":{"ha":669,"x_min":0,"x_max":0,"o":"m 439 0 b 388 176 409 56 395 113 b 365 327 383 227 380 278 b 187 655 327 447 227 536 b 241 327 183 542 248 440 b 191 0 233 214 174 116 b 81 0 154 0 118 0 b 123 272 67 96 103 179 b 104 491 139 348 125 417 b 85 711 83 565 68 634 b 127 982 105 803 141 886 b 230 982 161 982 195 982 b 280 806 260 926 274 869 b 304 654 286 755 289 704 b 482 326 342 534 442 446 b 429 654 487 439 421 542 b 479 982 436 768 496 866 b 589 982 516 982 552 982 b 547 711 603 886 567 803 b 565 491 530 634 545 565 b 584 272 586 417 601 348 b 542 0 564 179 528 96 b 439 0 508 0 473 0 z "},"O":{"ha":613,"x_min":0,"x_max":0,"o":"m 285 0 b 117 67 224 0 159 23 b 84 229 74 111 67 171 b 104 373 97 276 108 324 b 77 498 101 416 89 457 b 51 615 67 536 55 575 b 71 767 46 667 58 717 b 328 996 103 879 205 996 b 496 929 388 996 453 973 b 529 767 539 885 545 825 b 509 615 515 717 504 667 b 535 498 513 575 524 536 b 562 373 546 457 559 416 b 541 229 565 324 554 276 b 285 0 510 117 408 0 z m 330 886 b 181 767 263 886 199 830 b 161 615 167 717 156 667 b 187 498 165 575 176 536 b 214 373 199 457 211 416 b 194 229 218 324 207 276 b 283 110 176 166 216 110 b 431 229 350 110 413 166 b 452 373 444 276 455 324 b 425 498 449 416 437 457 b 399 615 414 536 403 575 b 419 767 394 667 405 717 b 330 886 437 830 396 886 z "},"P":{"ha":551,"x_min":0,"x_max":0,"o":"m 127 982 b 284 982 179 982 231 982 b 507 876 361 980 471 954 b 512 678 536 814 521 742 b 488 480 503 614 510 542 b 413 402 475 445 446 418 b 287 374 374 382 331 375 b 240 374 272 374 256 374 b 191 0 249 245 172 130 b 81 0 154 0 118 0 b 123 272 67 96 103 179 b 104 491 139 348 125 417 b 85 711 83 565 68 634 b 127 982 105 803 141 886 z m 262 484 b 379 539 302 485 362 495 b 402 678 395 583 395 632 b 402 817 408 723 417 772 b 285 872 386 860 324 871 b 236 872 269 872 253 872 b 189 678 223 807 198 744 b 216 484 180 611 198 548 b 262 484 231 484 247 484 z "},"Q":{"ha":613,"x_min":0,"x_max":0,"o":"m 269 -149 b 229 7 256 -97 239 -46 b 107 78 183 17 136 42 b 84 229 73 122 70 174 b 105 373 97 276 108 324 b 78 498 101 416 89 457 b 51 615 67 536 55 575 b 71 767 46 667 58 717 b 328 996 103 879 205 996 b 496 929 388 996 453 973 b 529 767 539 884 545 825 b 509 615 515 717 504 667 b 535 498 513 575 524 536 b 562 373 547 457 559 416 b 541 229 565 324 554 276 b 451 78 525 173 491 119 b 339 7 419 46 383 19 b 379 -149 349 -46 366 -97 b 269 -149 342 -149 305 -149 z m 330 886 b 181 767 263 886 199 830 b 161 615 168 717 156 667 b 188 498 165 575 177 536 b 214 373 199 457 211 416 b 194 229 218 324 207 276 b 283 110 176 166 217 110 b 431 229 350 110 414 166 b 452 373 444 276 456 324 b 425 498 449 416 437 457 b 399 615 414 536 403 575 b 419 767 394 667 405 717 b 330 886 437 830 396 886 z "},"R":{"ha":588,"x_min":0,"x_max":0,"o":"m 314 375 b 292 374 306 375 299 374 b 240 374 275 374 257 374 b 191 0 249 245 172 130 b 81 0 154 0 118 0 b 123 272 67 97 103 180 b 104 491 139 349 125 417 b 85 711 83 566 68 634 b 127 982 105 803 141 886 b 284 982 179 982 231 982 b 508 876 361 981 471 954 b 512 678 536 814 521 743 b 487 480 503 614 510 543 b 417 404 475 445 448 423 b 486 202 456 340 474 276 b 552 0 497 129 514 64 b 432 0 512 0 472 0 b 368 188 397 60 379 120 b 314 375 357 254 345 315 z m 262 484 b 379 540 303 485 362 495 b 402 678 395 583 396 633 b 402 817 408 723 417 772 b 285 873 386 860 325 871 b 236 873 269 873 253 873 b 189 678 223 807 198 744 b 216 484 180 611 197 548 b 262 484 231 484 247 484 z "},"S":{"ha":556,"x_min":0,"x_max":0,"o":"m 238 0 b 61 48 176 1 114 15 b 48 56 56 51 53 53 b 73 198 49 105 60 151 b 108 160 85 185 96 173 b 236 110 142 124 188 111 b 388 232 303 109 370 167 b 223 497 421 350 303 433 b 55 791 131 572 16 657 b 281 996 84 891 170 997 b 458 948 343 995 404 981 b 471 940 463 945 466 943 b 446 798 470 891 459 845 b 411 836 434 811 423 823 b 283 886 378 873 330 885 b 165 791 230 887 179 842 b 283 573 138 699 221 626 b 498 232 384 486 542 387 b 260 1 468 127 374 12 b 261 0 260 1 260 1 b 238 0 252 0 247 0 z "},"T":{"ha":453,"x_min":0,"x_max":0,"o":"m 124 0 b 158 238 112 84 136 158 b 162 436 175 306 178 368 b 119 634 146 501 120 566 b 169 872 118 716 154 793 b 17 872 118 872 68 872 b 17 982 23 910 23 944 b 432 982 155 982 294 982 b 432 872 438 944 438 910 b 279 872 381 872 330 872 b 229 634 264 793 228 716 b 272 436 230 566 256 501 b 267 238 288 368 285 306 b 234 0 246 158 221 84 b 124 0 197 0 161 0 z "},"U":{"ha":661,"x_min":0,"x_max":0,"o":"m 310 0 b 142 67 249 0 184 23 b 109 229 99 111 92 171 b 120 433 128 298 136 362 b 77 609 106 492 84 549 b 125 989 61 740 145 857 b 235 989 162 989 198 989 b 187 609 255 857 171 740 b 230 433 194 549 216 492 b 219 229 246 362 238 298 b 308 110 201 166 241 110 b 456 229 375 110 439 166 b 467 433 475 298 484 362 b 425 609 454 492 432 549 b 473 989 409 740 493 857 b 583 989 509 989 546 989 b 534 609 602 857 519 740 b 577 433 542 549 564 492 b 566 229 594 362 585 298 b 310 0 535 117 433 0 z "},"V":{"ha":592,"x_min":0,"x_max":0,"o":"m 200 0 b 184 272 167 92 184 177 b 119 491 185 352 155 420 b 54 711 84 562 54 630 b 39 982 55 805 72 890 b 151 982 76 982 114 982 b 172 797 173 921 176 862 b 173 638 168 744 162 691 b 296 294 197 517 287 421 b 315 479 318 356 320 415 b 318 638 312 532 306 586 b 440 982 343 760 433 855 b 553 982 478 982 515 982 b 456 714 547 883 494 803 b 427 491 424 640 421 570 b 398 268 433 412 430 342 b 301 0 359 179 307 99 b 200 0 267 0 234 0 z "},"W":{"ha":874,"x_min":0,"x_max":0,"o":"m 510 0 b 494 178 490 59 488 116 b 500 324 498 226 505 275 b 387 648 488 440 407 534 b 382 324 366 540 410 431 b 274 0 353 212 278 120 b 172 0 240 0 206 0 b 164 272 142 92 161 177 b 105 491 167 352 139 420 b 47 711 72 562 44 631 b 39 982 50 805 69 890 b 151 982 76 982 113 982 b 167 812 169 926 173 871 b 160 658 163 761 155 710 b 273 334 172 543 253 448 b 278 658 294 442 250 551 b 386 982 307 771 382 863 b 488 982 420 982 454 982 b 505 812 507 926 510 871 b 497 658 500 761 492 710 b 611 334 510 543 591 448 b 615 658 631 442 588 551 b 724 982 644 771 720 863 b 835 982 761 982 798 982 b 746 714 832 884 782 804 b 723 491 716 640 715 570 b 701 268 731 412 731 342 b 611 0 665 179 615 99 b 510 0 577 0 544 0 z "},"X":{"ha":586,"x_min":0,"x_max":0,"o":"m 396 0 b 347 167 368 54 353 107 b 321 335 341 224 337 280 b 145 0 269 219 173 126 b 28 0 106 0 67 0 b 155 246 49 93 105 166 b 235 491 205 324 226 399 b 130 737 183 569 141 643 b 73 982 120 824 115 903 b 191 982 112 982 151 982 b 240 815 219 929 233 875 b 266 648 246 758 249 703 b 441 982 317 764 413 856 b 559 982 480 982 520 982 b 431 737 538 889 481 816 b 352 491 382 658 360 583 b 456 246 403 413 445 340 b 513 0 467 159 471 79 b 396 0 474 0 435 0 z "},"Y":{"ha":550,"x_min":0,"x_max":0,"o":"m 174 0 b 200 209 163 73 180 139 b 216 418 220 280 231 344 b 72 700 162 509 91 593 b 58 830 64 743 63 787 b 11 982 51 885 36 934 b 128 982 50 982 89 982 b 229 586 194 856 164 712 b 421 982 262 733 389 835 b 538 982 460 982 499 982 b 390 700 515 875 443 794 b 326 418 340 610 340 517 b 310 209 340 344 330 280 b 284 0 290 139 273 74 b 174 0 248 0 211 0 z "},"Z":{"ha":558,"x_min":0,"x_max":0,"o":"m 39 69 b 171 292 75 148 130 216 b 219 471 201 349 214 407 b 251 649 225 531 228 592 b 383 872 284 729 341 797 b 105 872 290 872 198 872 b 105 982 111 910 111 944 b 515 982 242 982 378 982 b 520 913 519 959 521 936 b 388 690 484 834 429 766 b 340 511 358 633 345 575 b 308 333 334 451 331 390 b 176 110 275 253 218 185 b 469 110 274 110 371 110 b 468 0 463 72 463 38 b 44 0 327 0 185 0 b 39 69 40 23 38 46 z "},"[":{"ha":396,"x_min":0,"x_max":0,"o":"m 95 -112 b 54 52 81 -57 62 -4 b 64 199 46 102 52 150 b 97 467 86 290 116 372 b 52 726 80 553 41 636 b 99 1045 64 836 117 932 b 283 1045 160 1045 222 1045 b 284 935 289 1008 289 973 b 210 935 259 935 235 935 b 160 680 195 850 156 767 b 207 467 163 606 193 538 b 188 254 222 393 209 325 b 162 141 178 217 167 179 b 175 -2 156 92 163 45 b 248 -2 199 -2 224 -2 b 278 -112 258 -39 269 -75 b 95 -112 217 -112 156 -112 z "},"\\":{"ha":307,"x_min":0,"x_max":0,"o":"m 200 0 b 181 268 170 89 186 176 b 104 491 177 350 141 419 b 37 714 67 563 38 632 b 11 982 36 808 47 893 b 124 982 49 982 86 982 b 150 714 160 893 149 808 b 217 491 151 632 180 563 b 294 268 254 419 290 350 b 313 0 299 176 283 89 b 200 0 275 0 238 0 z "},"]":{"ha":379,"x_min":0,"x_max":0,"o":"m 79 -112 b 50 -2 71 -75 60 -39 b 123 -2 74 -2 99 -2 b 110 141 112 45 104 92 b 137 254 115 179 126 217 b 155 467 157 325 170 393 b 108 680 141 538 111 606 b 159 935 104 767 143 850 b 85 935 134 935 110 935 b 84 1045 91 973 90 1008 b 267 1045 145 1045 206 1045 b 220 726 285 932 232 836 b 265 467 210 636 248 553 b 232 199 284 372 254 290 b 222 52 220 150 214 102 b 263 -112 230 -4 249 -57 b 79 -112 202 -112 140 -112 z "},"^":{"ha":478,"x_min":0,"x_max":0,"o":"m 74 842 b 239 981 133 884 189 928 b 404 853 291 934 348 894 b 404 698 404 801 404 749 b 239 825 348 739 291 778 b 74 686 189 773 133 729 b 74 842 74 738 74 790 z "},"_":{"ha":490,"x_min":0,"x_max":0,"o":"m 21 -238 b 0 -128 18 -201 10 -165 b 469 -128 156 -128 312 -128 b 490 -238 478 -165 487 -201 b 21 -238 333 -238 177 -238 z "},"`":{"ha":769,"x_min":0,"x_max":0,"o":"m 425 1026 b 261 1230 369 1093 307 1156 b 354 1230 292 1230 323 1230 b 502 1026 394 1156 452 1093 b 425 1026 477 1026 451 1026 z "},"i":{"ha":318,"x_min":0,"x_max":0,"o":"m 81 0 b 123 272 67 96 103 179 b 104 491 139 348 125 417 b 85 711 83 565 68 634 b 127 982 105 803 141 886 b 237 982 163 982 200 982 b 195 711 251 886 215 803 b 214 491 178 634 193 565 b 233 272 235 417 249 348 b 191 0 213 179 177 96 b 81 0 155 0 118 0 z "},"{":{"ha":332,"x_min":0,"x_max":0,"o":"m 241 -110 b 131 -67 200 -110 161 -94 b 61 68 92 -33 67 17 b 107 251 54 133 83 193 b 123 287 114 265 117 272 b 114 394 135 322 139 363 b 79 412 106 403 92 412 b 52 412 69 412 63 412 b 31 522 49 450 40 485 b 58 522 42 522 47 522 b 86 540 73 522 82 532 b 87 647 105 572 95 613 b 79 683 83 661 81 669 b 95 866 70 745 79 805 b 153 1001 108 912 123 963 b 246 1043 176 1030 210 1043 b 301 1043 265 1043 283 1043 b 303 933 307 1006 308 971 b 248 933 284 933 266 933 b 232 929 236 933 233 930 b 200 846 212 909 206 872 b 187 699 188 798 183 749 b 194 663 189 685 190 677 b 188 468 208 601 226 524 b 187 467 188 468 187 467 b 188 466 188 466 188 466 b 227 271 247 411 255 343 b 211 235 222 259 217 247 b 170 88 192 188 169 138 b 195 4 170 62 174 24 b 211 0 196 3 199 0 b 266 0 229 0 248 0 b 296 -110 276 -36 286 -73 b 241 -110 277 -110 259 -110 z "},"|":{"ha":303,"x_min":0,"x_max":0,"o":"m 118 -90 b 79 219 96 16 54 110 b 118 492 100 311 136 396 b 71 757 101 581 60 665 b 118 1074 85 867 137 961 b 228 1074 155 1074 192 1074 b 181 757 247 961 195 867 b 228 492 170 665 211 581 b 189 219 246 396 210 311 b 228 -90 164 110 206 16 b 118 -90 191 -90 155 -90 z "},"}":{"ha":351,"x_min":0,"x_max":0,"o":"m 60 -110 b 31 0 51 -73 40 -36 b 85 0 49 0 67 0 b 100 4 97 0 99 3 b 98 88 111 26 100 64 b 105 235 93 137 99 186 b 109 271 107 249 108 256 b 174 466 120 335 138 410 b 175 467 174 466 174 466 b 173 468 174 467 174 468 b 76 663 122 516 73 589 b 80 699 77 677 78 685 b 128 846 91 750 112 798 b 137 929 135 868 150 908 b 122 933 136 930 134 933 b 67 933 104 933 85 933 b 66 1043 72 971 72 1006 b 121 1043 84 1043 102 1043 b 225 1001 159 1043 199 1029 b 244 865 259 964 256 911 b 189 683 227 804 199 746 b 187 647 187 668 187 661 b 238 540 187 606 208 566 b 276 522 249 530 262 522 b 304 522 287 522 293 522 b 325 412 314 485 322 450 b 298 412 314 412 309 412 b 265 394 283 412 272 402 b 222 286 240 365 227 324 b 218 251 221 272 220 265 b 210 68 210 190 204 130 b 203 -67 214 25 226 -28 b 115 -110 184 -98 149 -110 b 60 -110 97 -110 78 -110 z "},"¡":{"ha":254,"x_min":0,"x_max":0,"o":"m 160 797 b 146 650 165 746 158 699 b 36 650 109 650 72 650 b 50 797 48 699 56 746 b 160 797 87 797 124 797 z m 124 571 b 121 368 107 501 104 438 b 162 193 135 310 157 253 b 134 18 167 133 150 75 b 113 -185 115 -50 102 -114 b 3 -185 76 -185 40 -185 b 24 18 -8 -114 5 -50 b 52 193 40 75 57 133 b 11 368 47 253 25 310 b 14 571 -6 438 -3 501 b 124 571 51 571 87 571 z "},"¢":{"ha":422,"x_min":0,"x_max":0,"o":"m 188 -157 b 149 -5 176 -106 159 -56 b 44 59 109 8 69 27 b 21 194 13 99 9 144 b 47 373 37 253 54 311 b 3 552 40 434 18 492 b 49 686 -8 605 12 650 b 165 750 79 717 122 740 b 199 903 179 801 194 850 b 309 903 236 903 272 903 b 275 753 304 851 289 803 b 356 721 304 748 332 737 b 368 714 361 718 363 717 b 362 576 358 667 355 623 b 314 610 346 587 330 598 b 200 648 278 634 242 647 b 113 552 151 649 99 605 b 156 373 127 492 150 434 b 131 194 163 311 147 253 b 203 98 114 143 152 97 b 325 136 247 98 289 112 b 378 170 342 147 360 159 b 358 32 365 124 356 80 b 344 24 352 29 349 27 b 259 -7 318 9 289 -2 b 298 -157 270 -58 286 -107 b 188 -157 262 -157 225 -157 z "},"£":{"ha":488,"x_min":0,"x_max":0,"o":"m 43 0 b 42 98 38 33 37 65 b 59 105 49 101 52 102 b 231 253 126 133 198 189 b 202 440 265 321 246 379 b 77 440 160 440 119 440 b 47 549 67 476 56 513 b 110 549 68 549 89 549 b 50 784 52 623 25 693 b 276 989 77 883 165 990 b 453 941 338 988 399 974 b 466 933 458 938 461 936 b 440 791 465 884 454 838 b 406 829 429 804 418 816 b 278 879 373 866 325 878 b 160 784 225 880 173 834 b 219 573 138 704 169 637 b 238 549 225 565 231 557 b 377 549 284 549 331 549 b 407 440 387 513 398 476 b 323 440 379 440 351 440 b 358 360 338 414 352 388 b 328 223 368 313 352 267 b 239 110 306 181 273 144 b 471 110 316 110 394 110 b 471 0 465 72 465 38 b 43 0 328 0 186 0 z "},"¥":{"ha":542,"x_min":0,"x_max":0,"o":"m 422 473 b 333 473 392 473 363 473 b 390 700 342 552 349 627 b 538 982 443 794 515 875 b 421 982 499 982 460 982 b 229 586 389 835 262 733 b 128 982 164 712 194 856 b 11 982 89 982 50 982 b 58 830 36 934 51 885 b 72 700 63 787 64 743 b 181 473 87 615 135 544 b 91 473 151 473 121 473 b 114 363 102 437 110 401 b 223 363 150 363 186 363 b 221 316 223 347 223 332 b 113 316 185 316 149 316 b 88 206 108 279 99 243 b 199 206 125 206 162 206 b 174 0 179 137 164 73 b 284 0 211 0 248 0 b 309 206 273 73 289 137 b 419 206 346 206 382 206 b 443 316 429 243 438 279 b 331 316 406 316 369 316 b 332 363 333 332 333 347 b 444 363 370 363 407 363 b 422 473 441 401 432 437 z "},"§":{"ha":744,"x_min":0,"x_max":0,"o":"m 373 -121 b 189 -73 307 -120 247 -103 b 174 -65 183 -70 180 -68 b 145 77 161 -18 148 28 b 194 39 161 64 177 51 b 343 -11 236 7 291 -13 b 433 29 377 -10 411 0 b 449 81 444 44 451 62 b 415 157 447 109 435 137 b 334 218 391 181 363 199 b 277 256 315 230 296 243 b 174 337 241 280 205 305 b 92 481 137 376 107 429 b 110 615 78 529 80 575 b 187 670 128 641 158 657 b 126 829 137 712 112 764 b 205 964 138 880 169 926 b 377 1039 251 1012 312 1038 b 554 990 439 1039 499 1022 b 567 982 560 987 562 986 b 544 840 567 933 557 887 b 509 878 532 853 521 866 b 380 929 476 915 427 928 b 274 889 342 929 303 913 b 238 836 258 875 243 857 b 260 761 231 809 241 781 b 346 699 284 735 316 717 b 413 662 368 686 391 674 b 548 581 460 637 507 612 b 658 436 596 545 643 496 b 599 302 671 382 637 334 b 501 247 570 278 537 261 b 559 89 543 204 555 146 b 532 -46 561 42 558 -6 b 373 -121 497 -100 434 -119 b 373 -121 373 -121 373 -121 z m 341 358 b 418 336 365 346 391 336 b 424 336 420 336 422 336 b 522 370 459 339 495 348 b 549 428 538 383 555 405 b 469 518 540 469 502 498 b 390 560 444 534 416 548 b 304 582 364 571 334 582 b 298 582 302 582 300 582 b 214 548 269 579 236 570 b 199 489 199 533 193 509 b 274 399 212 450 242 422 b 341 358 295 385 319 371 b 341 358 341 358 341 358 z "},"¨":{"ha":747,"x_min":0,"x_max":0,"o":"m 264 1058 b 235 1167 255 1094 244 1130 b 316 1167 262 1167 289 1167 b 346 1058 326 1130 337 1094 b 264 1058 319 1058 292 1058 z m 431 1058 b 401 1167 422 1094 411 1130 b 483 1167 429 1167 456 1167 b 513 1058 493 1130 504 1094 b 431 1058 486 1058 458 1058 z "},"©":{"ha":507,"x_min":0,"x_max":0,"o":"m 186 708 b 233 651 179 677 203 651 b 303 675 259 651 281 661 b 298 625 300 659 298 642 b 232 609 278 614 254 609 b 143 708 180 608 129 653 b 162 778 149 731 156 755 b 284 877 177 831 230 879 b 348 861 307 877 327 872 b 337 811 345 844 341 827 b 276 835 322 828 298 835 b 205 778 244 835 214 809 b 186 708 198 755 192 731 b 186 708 186 708 186 708 z m 280 984 b 56 778 168 984 84 879 b 37 708 49 755 43 731 b 252 502 9 588 147 502 b 448 708 367 502 425 608 b 467 778 454 731 460 755 b 280 984 501 897 391 984 z m 391 708 b 238 559 375 633 320 560 b 94 708 159 558 75 623 b 113 778 100 731 106 755 b 287 927 135 853 204 928 b 410 778 367 926 435 861 b 391 708 403 755 397 731 z "},"®":{"ha":507,"x_min":0,"x_max":0,"o":"m 280 984 b 56 778 168 984 84 879 b 37 708 49 755 43 731 b 252 502 9 588 147 502 b 448 708 367 502 425 608 b 467 778 454 731 460 755 b 280 984 500 897 391 984 z m 391 708 b 238 559 375 633 320 560 b 94 708 159 558 75 623 b 113 778 99 731 106 755 b 287 927 135 853 204 928 b 410 778 367 926 435 861 b 391 708 403 755 397 731 z m 288 715 b 321 612 296 679 306 646 b 275 612 306 612 290 612 b 244 703 261 642 252 671 b 208 703 230 703 223 703 b 199 612 202 673 198 643 b 156 612 184 612 170 612 b 169 715 156 647 161 680 b 208 874 182 768 199 820 b 284 874 233 874 259 874 b 342 843 306 873 333 865 b 343 788 349 825 347 806 b 313 733 337 769 327 750 b 288 715 306 726 297 720 z m 283 756 b 300 788 291 764 296 775 b 301 820 304 801 304 812 b 275 831 298 826 290 832 b 242 831 262 831 255 831 b 219 745 235 802 227 774 b 252 745 232 745 239 745 b 283 756 266 745 278 751 b 283 756 283 756 283 756 z "},"¯":{"ha":621,"x_min":0,"x_max":0,"o":"m 220 1064 b 201 1147 219 1101 211 1097 b 399 1147 358 1147 243 1147 b 418 1064 408 1097 417 1101 b 220 1064 262 1064 376 1064 z "},"°":{"ha":378,"x_min":0,"x_max":0,"o":"m 164 754 b 74 869 100 754 68 810 b 179 984 80 927 114 984 b 304 869 238 983 310 935 b 164 754 297 804 226 754 z m 190 906 b 152 869 169 907 153 887 b 183 831 150 851 163 830 b 227 869 203 832 224 848 b 190 906 229 889 209 906 z "},"´":{"ha":683,"x_min":0,"x_max":0,"o":"m 344 1032 b 421 1236 368 1102 385 1172 b 327 1236 390 1236 359 1236 b 267 1032 296 1171 285 1101 b 344 1032 292 1032 318 1032 z "},"·":{"ha":249,"x_min":0,"x_max":0,"o":"m 63 415 b 77 563 58 467 65 514 b 187 563 114 563 151 563 b 173 415 175 514 167 467 b 63 415 136 415 99 415 z "},"¸":{"ha":713,"x_min":0,"x_max":0,"o":"m 328 -206 b 268 -182 307 -206 285 -196 b 251 -168 262 -177 258 -174 b 287 -125 264 -154 276 -140 b 303 -136 294 -129 297 -131 b 317 -140 308 -139 312 -140 b 333 -120 328 -140 335 -131 b 308 -99 330 -109 319 -100 b 299 -99 304 -99 303 -99 b 264 -68 288 -89 276 -78 b 289 0 272 -45 280 -23 b 363 0 314 0 338 0 b 339 -45 355 -15 347 -30 b 398 -105 364 -57 386 -79 b 403 -120 400 -110 401 -115 b 328 -206 414 -166 373 -206 z "},"¿":{"ha":443,"x_min":0,"x_max":0,"o":"m 330 798 b 315 650 335 747 328 699 b 205 650 279 650 242 650 b 220 798 218 699 225 747 b 330 798 257 798 293 798 z m 294 572 b 287 544 291 561 289 555 b 213 187 261 426 271 295 b 120 25 185 134 138 84 b 202 -82 104 -32 143 -82 b 350 -31 257 -82 305 -62 b 406 7 369 -19 387 -6 b 382 -135 393 -40 382 -87 b 370 -144 377 -139 375 -140 b 205 -192 318 -176 265 -191 b 11 25 88 -193 -26 -98 b 110 242 33 100 82 168 b 177 544 147 338 154 444 b 184 572 180 555 181 561 b 294 572 220 572 257 572 z "},"À":{"ha":615,"x_min":0,"x_max":0,"o":"m 464 0 b 446 257 432 86 443 168 b 247 257 379 257 313 257 b 152 0 207 173 158 95 b 39 0 114 0 77 0 b 138 264 46 98 98 177 b 171 491 172 339 176 410 b 205 718 166 572 171 643 b 304 982 244 805 296 884 b 403 982 337 982 370 982 b 422 710 437 891 421 805 b 490 491 423 630 454 562 b 558 272 526 420 557 353 b 577 0 559 177 543 91 b 464 0 539 0 502 0 z m 433 367 b 310 703 395 483 315 578 b 281 535 288 648 279 595 b 282 367 282 479 289 424 b 433 367 332 367 383 367 z m 305 1026 b 141 1230 249 1093 187 1156 b 234 1230 172 1230 203 1230 b 382 1026 274 1156 331 1093 b 305 1026 357 1026 331 1026 z "},"Á":{"ha":615,"x_min":0,"x_max":0,"o":"m 464 0 b 446 257 432 86 443 168 b 247 257 379 257 313 257 b 152 0 207 173 158 95 b 39 0 114 0 77 0 b 138 264 46 98 98 177 b 171 491 172 339 176 410 b 205 718 166 572 171 643 b 304 982 244 805 296 884 b 403 982 337 982 370 982 b 422 710 437 891 421 805 b 490 491 423 630 454 562 b 558 272 526 420 557 353 b 577 0 559 177 543 91 b 464 0 539 0 502 0 z m 433 367 b 310 703 395 483 315 578 b 281 535 288 648 279 595 b 282 367 282 479 289 424 b 433 367 332 367 383 367 z m 388 1032 b 464 1236 411 1102 428 1172 b 371 1236 433 1236 402 1236 b 310 1032 340 1171 328 1101 b 388 1032 336 1032 362 1032 z "},"Â":{"ha":615,"x_min":0,"x_max":0,"o":"m 464 0 b 446 257 432 86 443 168 b 247 257 379 257 313 257 b 152 0 207 173 158 95 b 39 0 114 0 77 0 b 138 264 46 98 98 177 b 171 491 172 339 176 410 b 205 718 166 572 171 643 b 304 982 244 805 296 884 b 403 982 337 982 370 982 b 422 710 437 891 421 805 b 490 491 423 630 454 562 b 558 272 526 420 557 353 b 577 0 559 177 543 91 b 464 0 539 0 502 0 z m 433 367 b 310 703 395 483 315 578 b 281 535 288 648 279 595 b 282 367 282 479 289 424 b 433 367 332 367 383 367 z m 414 1024 b 330 1116 387 1055 358 1085 b 295 1024 318 1085 307 1054 b 208 1024 266 1024 237 1024 b 288 1201 234 1083 256 1144 b 337 1201 305 1201 321 1201 b 502 1024 388 1138 447 1083 b 414 1024 473 1024 444 1024 z "},"Ã":{"ha":615,"x_min":0,"x_max":0,"o":"m 464 0 b 446 257 432 86 443 168 b 247 257 379 257 313 257 b 152 0 207 173 158 95 b 39 0 114 0 77 0 b 138 264 46 98 98 177 b 171 491 172 339 176 410 b 205 718 166 572 171 643 b 304 982 244 805 296 884 b 403 982 337 982 370 982 b 422 710 437 891 421 805 b 490 491 423 630 454 562 b 558 272 526 420 557 353 b 577 0 559 177 543 91 b 464 0 539 0 502 0 z m 433 367 b 310 703 395 483 315 578 b 281 535 288 648 279 595 b 282 367 282 479 289 424 b 433 367 332 367 383 367 z m 217 1072 b 220 1084 219 1077 219 1079 b 284 1151 229 1116 246 1151 b 338 1136 303 1151 321 1143 b 384 1121 352 1130 368 1121 b 408 1142 394 1120 401 1127 b 412 1152 410 1146 410 1148 b 469 1125 431 1143 450 1134 b 466 1113 468 1120 467 1118 b 401 1046 457 1081 440 1045 b 348 1061 382 1046 364 1053 b 303 1076 334 1067 318 1075 b 278 1054 293 1077 286 1070 b 273 1045 276 1051 275 1049 b 217 1072 255 1054 236 1063 z "},"Ä":{"ha":615,"x_min":0,"x_max":0,"o":"m 464 0 b 446 257 432 86 443 168 b 247 257 379 257 313 257 b 152 0 207 173 158 95 b 39 0 114 0 77 0 b 138 264 46 98 98 177 b 171 491 172 339 176 410 b 205 718 166 572 171 643 b 304 982 244 805 296 884 b 403 982 337 982 370 982 b 422 710 437 891 421 805 b 490 491 423 630 454 562 b 558 272 526 420 557 353 b 577 0 559 177 543 91 b 464 0 539 0 502 0 z m 433 367 b 310 703 395 483 315 578 b 281 535 288 648 279 595 b 282 367 282 479 289 424 b 433 367 332 367 383 367 z m 242 1044 b 212 1153 233 1080 222 1116 b 294 1153 240 1153 267 1153 b 324 1044 304 1116 315 1080 b 242 1044 297 1044 269 1044 z m 409 1044 b 379 1153 400 1080 389 1116 b 461 1153 406 1153 434 1153 b 491 1044 470 1116 481 1080 b 409 1044 463 1044 436 1044 z "},"Å":{"ha":615,"x_min":0,"x_max":0,"o":"m 464 0 b 446 257 432 86 443 168 b 247 257 379 257 313 257 b 152 0 207 173 158 95 b 39 0 114 0 77 0 b 138 264 46 98 98 177 b 171 491 172 339 176 410 b 205 718 166 572 171 643 b 304 982 244 805 296 884 b 403 982 337 982 370 982 b 422 710 437 891 421 805 b 490 491 423 630 454 562 b 558 272 526 420 557 353 b 577 0 559 177 543 91 b 464 0 539 0 502 0 z m 433 367 b 310 703 395 483 315 578 b 281 535 288 648 279 595 b 282 367 282 479 289 424 b 433 367 332 367 383 367 z m 322 1209 b 251 1120 275 1208 238 1167 b 364 1032 264 1074 315 1032 b 428 1120 411 1032 441 1075 b 322 1209 415 1165 371 1209 z m 350 1084 b 303 1120 329 1083 309 1102 b 330 1157 298 1137 310 1158 b 376 1120 350 1156 370 1139 b 350 1084 381 1102 368 1084 z "},"Æ":{"ha":807,"x_min":0,"x_max":0,"o":"m 358 0 b 344 129 347 43 340 85 b 374 257 349 173 362 215 b 225 257 324 257 275 257 b 152 0 182 173 149 97 b 39 0 114 0 77 0 b 116 264 37 100 72 177 b 174 491 153 338 177 407 b 187 718 171 568 161 643 b 299 982 218 809 277 887 b 768 982 455 982 612 982 b 753 872 768 944 762 909 b 493 872 666 872 580 872 b 454 711 479 819 460 766 b 476 551 449 656 462 603 b 681 551 545 551 613 551 b 709 441 692 514 702 478 b 504 441 640 441 572 441 b 453 110 520 325 461 223 b 713 110 540 110 626 110 b 728 0 713 72 719 37 b 358 0 604 0 481 0 z m 397 367 b 349 620 402 456 365 535 b 383 872 333 708 360 788 b 372 872 378 872 376 872 b 281 620 331 791 285 713 b 273 367 279 534 296 452 b 397 367 315 367 356 367 z "},"Ç":{"ha":561,"x_min":0,"x_max":0,"o":"m 319 883 b 444 832 365 882 412 869 b 478 794 455 820 466 807 b 513 937 491 841 506 888 b 501 945 509 940 506 942 b 333 993 450 978 393 992 b 166 926 270 993 214 965 b 58 765 118 886 73 828 b 89 495 38 668 65 588 b 103 370 99 454 107 413 b 69 225 98 321 83 273 b 118 64 54 161 70 108 b 258 0 156 30 206 7 b 240 -50 252 -17 246 -33 b 275 -81 252 -60 263 -70 b 284 -81 279 -81 280 -81 b 309 -101 295 -81 306 -91 b 293 -122 311 -113 304 -122 b 279 -117 288 -122 284 -120 b 263 -106 273 -113 270 -111 b 227 -150 252 -121 240 -136 b 244 -164 234 -156 238 -159 b 304 -188 261 -178 283 -188 b 379 -101 349 -188 390 -148 b 374 -87 377 -96 376 -92 b 315 -27 362 -61 340 -39 b 329 0 319 -18 324 -9 b 454 45 374 5 416 18 b 465 53 458 48 461 50 b 474 196 458 103 463 148 b 421 158 456 184 438 171 b 278 107 379 127 330 107 b 179 225 214 108 161 160 b 213 370 193 273 208 321 b 199 495 217 413 209 454 b 169 765 175 588 149 668 b 319 883 183 830 255 884 z "},"È":{"ha":540,"x_min":0,"x_max":0,"o":"m 81 0 b 123 272 67 96 103 179 b 104 491 139 348 125 417 b 85 711 83 565 68 634 b 127 982 105 803 141 886 b 497 982 250 982 373 982 b 496 872 502 944 502 910 b 236 872 410 872 323 872 b 195 711 226 818 207 766 b 198 551 183 656 186 605 b 402 551 266 551 334 551 b 432 441 412 514 423 477 b 228 441 364 441 296 441 b 234 275 241 385 245 332 b 191 110 222 220 203 166 b 451 110 278 110 365 110 b 451 0 446 72 445 38 b 81 0 328 0 204 0 z m 292 1026 b 128 1230 236 1093 174 1156 b 221 1230 159 1230 190 1230 b 369 1026 261 1156 319 1093 b 292 1026 344 1026 318 1026 z "},"É":{"ha":540,"x_min":0,"x_max":0,"o":"m 81 0 b 123 272 67 96 103 179 b 104 491 139 348 125 417 b 85 711 83 565 68 634 b 127 982 105 803 141 886 b 497 982 250 982 373 982 b 496 872 502 944 502 910 b 236 872 410 872 323 872 b 195 711 226 818 207 766 b 198 551 183 656 186 605 b 402 551 266 551 334 551 b 432 441 412 514 423 477 b 228 441 364 441 296 441 b 234 275 241 385 245 332 b 191 110 222 220 203 166 b 451 110 278 110 365 110 b 451 0 446 72 445 38 b 81 0 328 0 204 0 z m 340 1032 b 417 1236 363 1102 381 1172 b 323 1236 385 1236 354 1236 b 263 1032 292 1171 281 1101 b 340 1032 288 1032 314 1032 z "},"Ê":{"ha":540,"x_min":0,"x_max":0,"o":"m 81 0 b 123 272 67 96 103 179 b 104 491 139 348 125 417 b 85 711 83 565 68 634 b 127 982 105 803 141 886 b 497 982 250 982 373 982 b 496 872 502 944 502 910 b 236 872 410 872 323 872 b 195 711 226 818 207 766 b 198 551 183 656 186 605 b 402 551 266 551 334 551 b 432 441 412 514 423 477 b 228 441 364 441 296 441 b 234 275 241 385 245 332 b 191 110 222 220 203 166 b 451 110 278 110 365 110 b 451 0 446 72 445 38 b 81 0 328 0 204 0 z m 372 1038 b 287 1130 344 1069 316 1099 b 253 1038 276 1099 265 1068 b 165 1038 224 1038 194 1038 b 246 1215 192 1097 214 1158 b 294 1215 262 1215 278 1215 b 460 1038 346 1152 404 1096 b 372 1038 431 1038 401 1038 z "},"Ë":{"ha":540,"x_min":0,"x_max":0,"o":"m 81 0 b 123 272 67 96 103 179 b 104 491 139 348 125 417 b 85 711 83 565 68 634 b 127 982 105 803 141 886 b 497 982 250 982 373 982 b 496 872 502 944 502 910 b 236 872 410 872 323 872 b 195 711 226 818 207 766 b 198 551 183 656 186 605 b 402 551 266 551 334 551 b 432 441 412 514 423 477 b 228 441 364 441 296 441 b 234 275 241 385 245 332 b 191 110 222 220 203 166 b 451 110 278 110 365 110 b 451 0 446 72 445 38 b 81 0 328 0 204 0 z m 185 1044 b 155 1153 176 1080 165 1116 b 237 1153 182 1153 209 1153 b 266 1044 246 1116 257 1080 b 185 1044 239 1044 212 1044 z m 352 1044 b 322 1153 342 1080 331 1116 b 403 1153 349 1153 376 1153 b 433 1044 413 1116 424 1080 b 352 1044 406 1044 379 1044 z "},"Ì":{"ha":318,"x_min":0,"x_max":0,"o":"m 81 0 b 123 272 67 96 103 179 b 104 491 139 348 125 417 b 85 711 83 565 68 634 b 127 982 105 803 141 886 b 237 982 163 982 200 982 b 195 711 251 886 215 803 b 214 491 178 634 193 565 b 233 272 235 417 249 348 b 191 0 213 179 177 96 b 81 0 155 0 118 0 z m 142 1026 b -22 1230 86 1093 24 1156 b 71 1230 9 1230 40 1230 b 219 1026 111 1156 168 1093 b 142 1026 193 1026 168 1026 z "},"Í":{"ha":318,"x_min":0,"x_max":0,"o":"m 81 0 b 123 272 67 96 103 179 b 104 491 139 348 125 417 b 85 711 83 565 68 634 b 127 982 105 803 141 886 b 237 982 163 982 200 982 b 195 711 251 886 215 803 b 214 491 178 634 193 565 b 233 272 235 417 249 348 b 191 0 213 179 177 96 b 81 0 155 0 118 0 z m 211 1032 b 287 1236 234 1102 251 1172 b 194 1236 256 1236 225 1236 b 133 1032 163 1171 151 1101 b 211 1032 159 1032 185 1032 z "},"Î":{"ha":318,"x_min":0,"x_max":0,"o":"m 81 0 b 123 272 67 96 103 179 b 104 491 139 348 125 417 b 85 711 83 565 68 634 b 127 982 105 803 141 886 b 237 982 163 982 200 982 b 195 711 251 886 215 803 b 214 491 178 634 193 565 b 233 272 235 417 249 348 b 191 0 213 179 177 96 b 81 0 155 0 118 0 z m 250 1024 b 165 1116 222 1055 194 1085 b 131 1024 154 1085 143 1054 b 43 1024 102 1024 73 1024 b 124 1201 70 1083 92 1144 b 173 1201 140 1201 156 1201 b 338 1024 224 1138 282 1083 b 250 1024 309 1024 280 1024 z "},"Ï":{"ha":318,"x_min":0,"x_max":0,"o":"m 81 0 b 123 272 67 96 103 179 b 104 491 139 348 125 417 b 85 711 83 565 68 634 b 127 982 105 803 141 886 b 237 982 163 982 200 982 b 195 711 251 886 215 803 b 214 491 178 634 193 565 b 233 272 235 417 249 348 b 191 0 213 179 177 96 b 81 0 155 0 118 0 z m 63 1044 b 33 1153 54 1080 43 1116 b 115 1153 61 1153 88 1153 b 145 1044 124 1116 135 1080 b 63 1044 117 1044 90 1044 z m 230 1044 b 200 1153 221 1080 210 1116 b 282 1153 227 1153 254 1153 b 311 1044 291 1116 302 1080 b 230 1044 284 1044 257 1044 z "},"Ð":{"ha":626,"x_min":0,"x_max":0,"o":"m 81 0 b 123 272 67 96 103 179 b 104 491 139 348 125 417 b 85 711 83 565 68 634 b 127 982 105 803 141 886 b 294 982 182 982 238 982 b 513 804 399 982 503 915 b 516 662 517 757 513 709 b 554 492 519 603 538 547 b 570 322 570 437 583 380 b 506 187 559 274 533 228 b 396 56 474 140 439 93 b 247 0 353 18 304 2 b 81 0 192 0 136 0 z m 252 110 b 347 147 288 110 320 125 b 427 247 380 175 406 211 b 444 492 472 326 469 404 b 409 628 431 537 416 581 b 401 736 403 664 404 700 b 375 835 399 770 396 806 b 295 872 356 861 326 872 b 236 872 275 872 256 872 b 188 667 223 803 195 737 b 214 491 181 607 197 549 b 240 315 230 433 246 375 b 191 110 233 245 205 179 b 249 110 211 110 230 110 b 252 110 250 110 251 110 z m 58 492 b 39 576 56 530 48 525 b 237 576 195 576 80 576 b 255 492 246 525 254 530 b 58 492 99 492 214 492 z "},"Ñ":{"ha":669,"x_min":0,"x_max":0,"o":"m 439 0 b 388 176 409 56 395 113 b 365 327 383 227 380 278 b 187 655 327 447 227 536 b 241 327 183 542 248 440 b 191 0 233 214 174 116 b 81 0 154 0 118 0 b 123 272 67 96 103 179 b 104 491 139 348 125 417 b 85 711 83 565 68 634 b 127 982 105 803 141 886 b 230 982 161 982 195 982 b 280 806 260 926 274 869 b 304 654 286 755 289 704 b 482 326 342 534 442 446 b 429 654 487 439 421 542 b 479 982 436 768 496 866 b 589 982 516 982 552 982 b 547 711 603 886 567 803 b 565 491 530 634 545 565 b 584 272 586 417 601 348 b 542 0 564 179 528 96 b 439 0 508 0 473 0 z m 234 1072 b 238 1084 236 1077 236 1079 b 301 1151 246 1116 263 1151 b 355 1136 320 1151 338 1143 b 401 1121 369 1130 385 1121 b 425 1142 411 1120 418 1127 b 429 1152 427 1146 427 1148 b 486 1125 448 1143 467 1134 b 483 1113 485 1120 484 1118 b 418 1046 474 1081 457 1045 b 365 1061 399 1046 381 1053 b 320 1076 351 1067 335 1075 b 295 1054 310 1077 303 1070 b 290 1045 293 1051 292 1049 b 234 1072 272 1054 253 1063 z "},"Ò":{"ha":613,"x_min":0,"x_max":0,"o":"m 285 0 b 117 67 224 0 159 23 b 84 229 74 111 67 171 b 104 373 97 276 108 324 b 77 498 101 416 89 457 b 51 615 67 536 55 575 b 71 767 46 667 58 717 b 328 996 103 879 205 996 b 496 929 388 996 453 973 b 529 767 539 885 545 825 b 509 615 515 717 504 667 b 535 498 513 575 524 536 b 562 373 546 457 559 416 b 541 229 565 324 554 276 b 285 0 510 117 408 0 z m 330 886 b 181 767 263 886 199 830 b 161 615 167 717 156 667 b 187 498 165 575 176 536 b 214 373 199 457 211 416 b 194 229 218 324 207 276 b 283 110 176 166 216 110 b 431 229 350 110 413 166 b 452 373 444 276 455 324 b 425 498 449 416 437 457 b 399 615 414 536 403 575 b 419 767 394 667 405 717 b 330 886 437 830 396 886 z m 296 1040 b 132 1244 240 1107 178 1170 b 225 1244 163 1244 194 1244 b 373 1040 265 1170 322 1107 b 296 1040 347 1040 322 1040 z "},"Ó":{"ha":613,"x_min":0,"x_max":0,"o":"m 285 0 b 117 67 224 0 159 23 b 84 229 74 111 67 171 b 104 373 97 276 108 324 b 77 498 101 416 89 457 b 51 615 67 536 55 575 b 71 767 46 667 58 717 b 328 996 103 879 205 996 b 496 929 388 996 453 973 b 529 767 539 885 545 825 b 509 615 515 717 504 667 b 535 498 513 575 524 536 b 562 373 546 457 559 416 b 541 229 565 324 554 276 b 285 0 510 117 408 0 z m 330 886 b 181 767 263 886 199 830 b 161 615 167 717 156 667 b 187 498 165 575 176 536 b 214 373 199 457 211 416 b 194 229 218 324 207 276 b 283 110 176 166 216 110 b 431 229 350 110 413 166 b 452 373 444 276 455 324 b 425 498 449 416 437 457 b 399 615 414 536 403 575 b 419 767 394 667 405 717 b 330 886 437 830 396 886 z m 370 1046 b 447 1250 394 1115 411 1186 b 354 1250 416 1250 385 1250 b 293 1046 323 1185 311 1115 b 370 1046 319 1046 345 1046 z "},"Ô":{"ha":613,"x_min":0,"x_max":0,"o":"m 285 0 b 117 67 224 0 159 23 b 84 229 74 111 67 171 b 104 373 97 276 108 324 b 77 498 101 416 89 457 b 51 615 67 536 55 575 b 71 767 46 667 58 717 b 328 996 103 879 205 996 b 496 929 388 996 453 973 b 529 767 539 885 545 825 b 509 615 515 717 504 667 b 535 498 513 575 524 536 b 562 373 546 457 559 416 b 541 229 565 324 554 276 b 285 0 510 117 408 0 z m 330 886 b 181 767 263 886 199 830 b 161 615 167 717 156 667 b 187 498 165 575 176 536 b 214 373 199 457 211 416 b 194 229 218 324 207 276 b 283 110 176 166 216 110 b 431 229 350 110 413 166 b 452 373 444 276 455 324 b 425 498 449 416 437 457 b 399 615 414 536 403 575 b 419 767 394 667 405 717 b 330 886 437 830 396 886 z m 402 1052 b 318 1144 375 1083 346 1113 b 283 1052 306 1113 295 1082 b 196 1052 254 1052 225 1052 b 276 1228 222 1111 244 1172 b 325 1228 293 1228 309 1228 b 490 1052 376 1166 435 1110 b 402 1052 461 1052 432 1052 z "},"Õ":{"ha":613,"x_min":0,"x_max":0,"o":"m 285 0 b 117 67 224 0 159 23 b 84 229 74 111 67 171 b 104 373 97 276 108 324 b 77 498 101 416 89 457 b 51 615 67 536 55 575 b 71 767 46 667 58 717 b 328 996 103 879 205 996 b 496 929 388 996 453 973 b 529 767 539 885 545 825 b 509 615 515 717 504 667 b 535 498 513 575 524 536 b 562 373 546 457 559 416 b 541 229 565 324 554 276 b 285 0 510 117 408 0 z m 330 886 b 181 767 263 886 199 830 b 161 615 167 717 156 667 b 187 498 165 575 176 536 b 214 373 199 457 211 416 b 194 229 218 324 207 276 b 283 110 176 166 216 110 b 431 229 350 110 413 166 b 452 373 444 276 455 324 b 425 498 449 416 437 457 b 399 615 414 536 403 575 b 419 767 394 667 405 717 b 330 886 437 830 396 886 z m 197 1086 b 200 1098 198 1091 199 1093 b 264 1165 209 1130 226 1165 b 318 1150 283 1165 301 1157 b 363 1135 332 1143 348 1135 b 388 1156 373 1134 380 1141 b 392 1166 389 1160 390 1162 b 448 1139 411 1157 430 1148 b 445 1127 447 1134 447 1132 b 381 1060 437 1095 419 1059 b 327 1075 362 1060 344 1067 b 282 1090 313 1081 297 1089 b 258 1068 272 1090 265 1084 b 253 1059 256 1064 255 1063 b 197 1086 234 1068 216 1077 z "},"Ö":{"ha":613,"x_min":0,"x_max":0,"o":"m 285 0 b 117 67 224 0 159 23 b 84 229 74 111 67 171 b 104 373 97 276 108 324 b 77 498 101 416 89 457 b 51 615 67 536 55 575 b 71 767 46 667 58 717 b 328 996 103 879 205 996 b 496 929 388 996 453 973 b 529 767 539 885 545 825 b 509 615 515 717 504 667 b 535 498 513 575 524 536 b 562 373 546 457 559 416 b 541 229 565 324 554 276 b 285 0 510 117 408 0 z m 330 886 b 181 767 263 886 199 830 b 161 615 167 717 156 667 b 187 498 165 575 176 536 b 214 373 199 457 211 416 b 194 229 218 324 207 276 b 283 110 176 166 216 110 b 431 229 350 110 413 166 b 452 373 444 276 455 324 b 425 498 449 416 437 457 b 399 615 414 536 403 575 b 419 767 394 667 405 717 b 330 886 437 830 396 886 z m 202 1058 b 173 1167 193 1094 182 1130 b 254 1167 200 1167 227 1167 b 284 1058 264 1130 275 1094 b 202 1058 257 1058 230 1058 z m 369 1058 b 339 1167 360 1094 349 1130 b 421 1167 367 1167 394 1167 b 451 1058 431 1130 442 1094 b 369 1058 424 1058 396 1058 z "},"×":{"ha":486,"x_min":0,"x_max":0,"o":"m 101 270 b 172 348 126 294 150 320 b 74 426 139 374 107 400 b 131 503 92 452 112 478 b 229 425 164 477 197 451 b 288 503 248 452 268 478 b 385 426 320 477 352 451 b 327 348 366 399 347 373 b 413 270 357 323 386 297 b 324 192 384 242 355 217 b 257 270 303 219 281 245 b 168 192 228 243 199 217 b 101 270 147 219 125 245 z "},"Ø":{"ha":654,"x_min":0,"x_max":0,"o":"m 530 767 b 533 869 538 801 541 836 b 604 989 560 907 585 946 b 514 989 574 989 544 989 b 491 943 507 973 499 958 b 347 996 453 979 398 996 b 73 767 225 996 99 884 b 103 498 53 671 80 590 b 117 373 114 457 121 416 b 84 229 113 324 98 276 b 90 126 73 191 77 156 b 50 7 72 89 58 50 b 140 7 80 7 110 7 b 151 53 143 23 147 38 b 308 0 196 19 254 0 b 542 229 434 0 511 119 b 575 373 555 276 570 324 b 561 498 578 416 571 457 b 530 767 537 590 510 671 z m 183 767 b 334 886 198 832 267 886 b 417 832 376 886 405 864 b 343 718 391 795 364 758 b 287 498 306 649 300 574 b 220 329 276 435 252 381 b 227 373 223 344 226 358 b 213 498 231 416 223 457 b 183 767 189 590 163 671 z m 465 373 b 432 229 461 324 445 276 b 292 110 414 167 358 110 b 200 162 251 110 216 131 b 272 271 221 199 246 234 b 377 498 322 342 362 411 b 414 675 387 558 393 618 b 451 498 418 616 435 560 b 465 373 461 457 469 416 z "},"Ù":{"ha":661,"x_min":0,"x_max":0,"o":"m 310 0 b 142 67 249 0 184 23 b 109 229 99 111 92 171 b 120 433 128 298 136 362 b 77 609 106 492 84 549 b 125 989 61 740 145 857 b 235 989 162 989 198 989 b 187 609 255 857 171 740 b 230 433 194 549 216 492 b 219 229 246 362 238 298 b 308 110 201 166 241 110 b 456 229 375 110 439 166 b 467 433 475 298 484 362 b 425 609 454 492 432 549 b 473 989 409 740 493 857 b 583 989 509 989 546 989 b 534 609 602 857 519 740 b 577 433 542 549 564 492 b 566 229 594 362 585 298 b 310 0 535 117 433 0 z m 307 1040 b 143 1244 251 1107 189 1170 b 236 1244 174 1244 205 1244 b 384 1040 276 1170 333 1107 b 307 1040 358 1040 333 1040 z "},"Ú":{"ha":661,"x_min":0,"x_max":0,"o":"m 310 0 b 142 67 249 0 184 23 b 109 229 99 111 92 171 b 120 433 128 298 136 362 b 77 609 106 492 84 549 b 125 989 61 740 145 857 b 235 989 162 989 198 989 b 187 609 255 857 171 740 b 230 433 194 549 216 492 b 219 229 246 362 238 298 b 308 110 201 166 241 110 b 456 229 375 110 439 166 b 467 433 475 298 484 362 b 425 609 454 492 432 549 b 473 989 409 740 493 857 b 583 989 509 989 546 989 b 534 609 602 857 519 740 b 577 433 542 549 564 492 b 566 229 594 362 585 298 b 310 0 535 117 433 0 z m 391 1032 b 467 1236 414 1102 431 1172 b 374 1236 436 1236 405 1236 b 313 1032 343 1171 331 1101 b 391 1032 339 1032 365 1032 z "},"Û":{"ha":661,"x_min":0,"x_max":0,"o":"m 310 0 b 142 67 249 0 184 23 b 109 229 99 111 92 171 b 120 433 128 298 136 362 b 77 609 106 492 84 549 b 125 989 61 740 145 857 b 235 989 162 989 198 989 b 187 609 255 857 171 740 b 230 433 194 549 216 492 b 219 229 246 362 238 298 b 308 110 201 166 241 110 b 456 229 375 110 439 166 b 467 433 475 298 484 362 b 425 609 454 492 432 549 b 473 989 409 740 493 857 b 583 989 509 989 546 989 b 534 609 602 857 519 740 b 577 433 542 549 564 492 b 566 229 594 362 585 298 b 310 0 535 117 433 0 z m 414 1038 b 329 1130 386 1069 357 1099 b 294 1038 317 1099 306 1068 b 207 1038 265 1038 236 1038 b 288 1215 233 1097 255 1158 b 336 1215 304 1215 320 1215 b 501 1038 387 1152 446 1096 b 414 1038 472 1038 443 1038 z "},"Ü":{"ha":661,"x_min":0,"x_max":0,"o":"m 310 0 b 142 67 249 0 184 23 b 109 229 99 111 92 171 b 120 433 128 298 136 362 b 77 609 106 492 84 549 b 125 989 61 740 145 857 b 235 989 162 989 198 989 b 187 609 255 857 171 740 b 230 433 194 549 216 492 b 219 229 246 362 238 298 b 308 110 201 166 241 110 b 456 229 375 110 439 166 b 467 433 475 298 484 362 b 425 609 454 492 432 549 b 473 989 409 740 493 857 b 583 989 509 989 546 989 b 534 609 602 857 519 740 b 577 433 542 549 564 492 b 566 229 594 362 585 298 b 310 0 535 117 433 0 z m 227 1044 b 198 1153 218 1080 207 1116 b 279 1153 225 1153 252 1153 b 309 1044 289 1116 300 1080 b 227 1044 282 1044 255 1044 z m 394 1044 b 364 1153 385 1080 374 1116 b 446 1153 392 1153 419 1153 b 476 1044 456 1116 467 1080 b 394 1044 449 1044 421 1044 z "},"Ý":{"ha":550,"x_min":0,"x_max":0,"o":"m 174 0 b 200 209 163 73 180 139 b 216 418 220 280 231 344 b 72 700 162 509 91 593 b 58 830 64 743 63 787 b 11 982 51 885 36 934 b 128 982 50 982 89 982 b 229 586 194 856 164 712 b 421 982 262 733 389 835 b 538 982 460 982 499 982 b 390 700 515 875 443 794 b 326 418 340 610 340 517 b 310 209 340 344 330 280 b 284 0 290 139 273 74 b 174 0 248 0 211 0 z m 320 1046 b 397 1250 344 1115 361 1186 b 304 1250 366 1250 335 1250 b 243 1046 273 1185 261 1115 b 321 1046 269 1046 295 1046 z "},"÷":{"ha":265,"x_min":0,"x_max":0,"o":"m 71 154 b 86 302 66 205 73 252 b 196 302 122 302 159 302 b 181 154 183 252 176 205 b 71 154 144 154 108 154 z m 86 395 b 71 543 73 445 66 492 b 181 543 108 543 144 543 b 196 395 176 492 183 445 b 86 395 159 395 123 395 z "},"Ā":{"ha":615,"x_min":0,"x_max":0,"o":"m 464 0 b 446 257 432 86 443 168 b 247 257 379 257 313 257 b 152 0 207 173 158 95 b 39 0 114 0 77 0 b 138 264 46 98 98 177 b 171 491 172 339 176 410 b 205 718 166 572 171 643 b 304 982 244 805 296 884 b 403 982 337 982 370 982 b 422 710 437 891 421 805 b 490 491 423 630 454 562 b 558 272 526 420 557 353 b 577 0 559 177 543 91 b 464 0 539 0 502 0 z m 433 367 b 310 703 395 483 315 578 b 281 535 288 648 279 595 b 282 367 282 479 289 424 b 433 367 332 367 383 367 z m 265 1036 b 247 1119 264 1074 256 1069 b 445 1119 403 1119 288 1119 b 463 1036 454 1069 462 1074 b 265 1036 307 1036 422 1036 z "},"Ă":{"ha":615,"x_min":0,"x_max":0,"o":"m 464 0 b 446 257 432 86 443 168 b 247 257 379 257 313 257 b 152 0 207 173 158 95 b 39 0 114 0 77 0 b 138 264 46 98 98 177 b 171 491 172 339 176 410 b 205 718 166 572 171 643 b 304 982 244 805 296 884 b 403 982 337 982 370 982 b 422 710 437 891 421 805 b 490 491 423 630 454 562 b 558 272 526 420 557 353 b 577 0 559 177 543 91 b 464 0 539 0 502 0 z m 433 367 b 310 703 395 483 315 578 b 281 535 288 648 279 595 b 282 367 282 479 289 424 b 433 367 332 367 383 367 z m 338 1040 b 223 1169 269 1040 223 1104 b 223 1185 223 1176 223 1179 b 283 1185 243 1185 263 1185 b 285 1175 284 1181 285 1179 b 357 1121 288 1141 327 1121 b 419 1175 385 1121 410 1149 b 423 1185 421 1179 421 1181 b 483 1185 443 1185 463 1185 b 483 1169 483 1179 483 1176 b 451 1078 487 1134 476 1102 b 338 1040 417 1047 384 1040 z "},"Ą":{"ha":615,"x_min":0,"x_max":0,"o":"m 464 0 b 446 257 432 86 443 168 b 247 257 379 257 313 257 b 152 0 207 173 158 95 b 39 0 114 0 77 0 b 138 264 46 98 98 177 b 171 491 172 339 176 410 b 205 718 166 572 171 643 b 304 982 244 805 296 884 b 403 982 337 982 370 982 b 422 710 437 891 421 805 b 490 491 423 630 454 562 b 558 272 526 420 557 353 b 577 0 559 177 543 91 b 464 0 539 0 502 0 z m 433 367 b 310 703 395 483 315 578 b 281 535 288 648 279 595 b 282 367 282 479 289 424 b 433 367 332 367 383 367 z m 509 -222 b 468 -214 494 -222 483 -218 b 410 -138 437 -204 415 -170 b 477 -5 401 -82 443 -43 b 482 0 479 -3 480 -2 b 560 0 510 0 532 0 b 518 -53 546 -18 532 -35 b 498 -82 512 -60 501 -74 b 499 -139 490 -97 480 -128 b 517 -142 504 -142 511 -143 b 523 -142 519 -142 521 -142 b 542 -138 527 -141 529 -140 b 558 -136 548 -137 552 -137 b 554 -214 558 -162 556 -188 b 545 -216 551 -215 549 -215 b 509 -222 536 -219 524 -222 z "},"Ć":{"ha":567,"x_min":0,"x_max":0,"o":"m 287 0 b 118 67 226 0 161 23 b 85 228 74 112 70 170 b 106 373 98 275 109 323 b 79 498 103 415 91 457 b 53 615 68 536 57 575 b 73 767 47 667 59 717 b 174 929 90 828 129 885 b 330 995 216 970 270 996 b 506 948 391 995 452 980 b 519 940 511 944 514 943 b 493 797 518 890 507 844 b 459 835 482 809 470 822 b 332 885 426 872 378 885 b 183 767 266 886 201 831 b 163 615 169 717 158 667 b 189 498 167 575 178 536 b 216 373 201 457 213 415 b 195 228 219 323 208 275 b 284 110 177 165 219 110 b 433 160 339 110 388 130 b 489 199 452 173 470 186 b 463 56 475 151 464 105 b 451 48 458 53 456 51 b 287 0 399 16 347 1 b 287 0 287 0 287 0 z m 368 1032 b 445 1236 392 1101 409 1172 b 352 1236 414 1236 383 1236 b 291 1032 320 1171 309 1101 b 368 1032 317 1032 343 1032 z "},"Ċ":{"ha":567,"x_min":0,"x_max":0,"o":"m 287 0 b 118 67 226 0 161 23 b 85 228 74 112 70 170 b 106 373 98 275 109 323 b 79 498 103 415 91 457 b 53 615 68 536 57 575 b 73 767 47 667 59 717 b 174 929 90 828 129 885 b 330 995 216 970 270 996 b 506 948 391 995 452 980 b 519 940 511 944 514 943 b 493 797 518 890 507 844 b 459 835 482 809 470 822 b 332 885 426 872 378 885 b 183 767 266 886 201 831 b 163 615 169 717 158 667 b 189 498 167 575 178 536 b 216 373 201 457 213 415 b 195 228 219 323 208 275 b 284 110 177 165 219 110 b 433 160 339 110 388 130 b 489 199 452 173 470 186 b 463 56 475 151 464 105 b 451 48 458 53 456 51 b 287 0 399 16 347 1 b 287 0 287 0 287 0 z m 292 1058 b 263 1167 283 1094 272 1130 b 344 1167 290 1167 317 1167 b 374 1058 354 1130 365 1094 b 292 1058 347 1058 320 1058 z "},"Č":{"ha":567,"x_min":0,"x_max":0,"o":"m 287 0 b 118 67 226 0 161 23 b 85 228 74 112 70 170 b 106 373 98 275 109 323 b 79 498 103 415 91 457 b 53 615 68 536 57 575 b 73 767 47 667 59 717 b 174 929 90 828 129 885 b 330 995 216 970 270 996 b 506 948 391 995 452 980 b 519 940 511 944 514 943 b 493 797 518 890 507 844 b 459 835 482 809 470 822 b 332 885 426 872 378 885 b 183 767 266 886 201 831 b 163 615 169 717 158 667 b 189 498 167 575 178 536 b 216 373 201 457 213 415 b 195 228 219 323 208 275 b 284 110 177 165 219 110 b 433 160 339 110 388 130 b 489 199 452 173 470 186 b 463 56 475 151 464 105 b 451 48 458 53 456 51 b 287 0 399 16 347 1 b 287 0 287 0 287 0 z m 309 1046 b 144 1223 254 1104 195 1160 b 231 1223 173 1223 202 1223 b 310 1131 256 1190 283 1160 b 351 1223 322 1162 335 1193 b 438 1223 380 1223 409 1223 b 357 1046 406 1166 384 1105 b 309 1046 341 1046 325 1046 z "},"Ď":{"ha":626,"x_min":0,"x_max":0,"o":"m 81 0 b 123 272 67 96 103 179 b 104 491 139 348 125 417 b 85 711 83 565 68 634 b 127 982 105 803 141 886 b 294 982 182 982 238 982 b 513 804 399 982 503 915 b 516 662 517 757 513 709 b 554 492 519 603 538 547 b 570 322 570 437 583 380 b 506 187 559 274 533 228 b 396 56 474 140 439 93 b 247 0 353 18 304 2 b 81 0 192 0 136 0 z m 252 110 b 347 147 288 110 320 125 b 427 247 380 175 406 211 b 444 492 472 326 469 404 b 409 628 431 537 416 581 b 401 736 403 664 404 700 b 375 835 399 770 396 806 b 295 872 356 861 326 872 b 236 872 275 872 256 872 b 188 667 223 803 195 737 b 214 491 181 607 197 549 b 240 315 230 433 246 375 b 191 110 233 245 205 179 b 249 110 211 110 230 110 b 252 110 250 110 251 110 z m 246 1032 b 81 1209 191 1091 132 1146 b 168 1209 110 1209 139 1209 b 247 1117 193 1177 220 1146 b 288 1209 259 1148 272 1179 b 375 1209 317 1209 346 1209 b 294 1032 343 1152 321 1091 b 246 1032 278 1032 262 1032 z "},"Đ":{"ha":626,"x_min":0,"x_max":0,"o":"m 81 0 b 123 272 67 96 103 179 b 104 491 139 348 125 417 b 85 711 83 565 68 634 b 127 982 105 803 141 886 b 294 982 182 982 238 982 b 513 804 399 982 503 915 b 516 662 517 757 513 709 b 554 492 519 603 538 547 b 570 322 570 437 583 380 b 506 187 559 274 533 228 b 396 56 474 140 439 93 b 247 0 353 18 304 2 b 81 0 192 0 136 0 z m 252 110 b 347 147 288 110 320 125 b 427 247 380 175 406 211 b 444 492 472 326 469 404 b 409 628 431 537 416 581 b 401 736 403 664 404 700 b 375 835 399 770 396 806 b 295 872 356 861 326 872 b 236 872 275 872 256 872 b 188 667 223 803 195 737 b 214 491 181 607 197 549 b 240 315 230 433 246 375 b 191 110 233 245 205 179 b 249 110 211 110 230 110 b 252 110 250 110 251 110 z m 58 492 b 39 576 56 530 48 525 b 237 576 195 576 80 576 b 255 492 246 525 254 530 b 58 492 99 492 214 492 z "},"Ē":{"ha":540,"x_min":0,"x_max":0,"o":"m 81 0 b 123 272 67 96 103 179 b 104 491 139 348 125 417 b 85 711 83 565 68 634 b 127 982 105 803 141 886 b 497 982 250 982 373 982 b 496 872 502 944 502 910 b 236 872 410 872 323 872 b 195 711 226 818 207 766 b 198 551 183 656 186 605 b 402 551 266 551 334 551 b 432 441 412 514 423 477 b 228 441 364 441 296 441 b 234 275 241 385 245 332 b 191 110 222 220 203 166 b 451 110 278 110 365 110 b 451 0 446 72 445 38 b 81 0 328 0 204 0 z m 208 1050 b 189 1133 207 1088 199 1083 b 387 1133 346 1133 231 1133 b 406 1050 396 1083 405 1088 b 208 1050 250 1050 364 1050 z "},"Ė":{"ha":540,"x_min":0,"x_max":0,"o":"m 81 0 b 123 272 67 96 103 179 b 104 491 139 348 125 417 b 85 711 83 565 68 634 b 127 982 105 803 141 886 b 497 982 250 982 373 982 b 496 872 502 944 502 910 b 236 872 410 872 323 872 b 195 711 226 818 207 766 b 198 551 183 656 186 605 b 402 551 266 551 334 551 b 432 441 412 514 423 477 b 228 441 364 441 296 441 b 234 275 241 385 245 332 b 191 110 222 220 203 166 b 451 110 278 110 365 110 b 451 0 446 72 445 38 b 81 0 328 0 204 0 z m 269 1044 b 239 1153 260 1080 249 1116 b 321 1153 266 1153 294 1153 b 351 1044 330 1116 341 1080 b 269 1044 323 1044 296 1044 z "},"Ę":{"ha":540,"x_min":0,"x_max":0,"o":"m 81 0 b 123 272 67 96 103 179 b 104 491 139 348 125 417 b 85 711 83 565 68 634 b 127 982 105 803 141 886 b 497 982 250 982 373 982 b 496 872 502 944 502 910 b 236 872 410 872 323 872 b 195 711 226 818 207 766 b 198 551 183 656 186 605 b 402 551 266 551 334 551 b 432 441 412 514 423 477 b 228 441 364 441 296 441 b 234 275 241 385 245 332 b 191 110 222 220 203 166 b 451 110 278 110 365 110 b 451 0 446 72 445 38 b 81 0 328 0 204 0 z m 333 -222 b 292 -214 317 -222 306 -218 b 234 -138 260 -204 239 -170 b 300 -5 225 -82 266 -43 b 305 0 302 -3 303 -2 b 384 0 334 0 355 0 b 341 -53 369 -18 355 -35 b 321 -82 336 -60 325 -74 b 323 -139 314 -98 304 -128 b 341 -142 328 -142 335 -143 b 347 -142 343 -142 345 -142 b 366 -138 351 -141 353 -141 b 381 -136 372 -137 375 -137 b 378 -214 382 -162 379 -188 b 369 -216 374 -215 372 -215 b 333 -222 359 -219 348 -222 z "},"Ě":{"ha":540,"x_min":0,"x_max":0,"o":"m 81 0 b 123 272 67 96 103 179 b 104 491 139 348 125 417 b 85 711 83 565 68 634 b 127 982 105 803 141 886 b 497 982 250 982 373 982 b 496 872 502 944 502 910 b 236 872 410 872 323 872 b 195 711 226 818 207 766 b 198 551 183 656 186 605 b 402 551 266 551 334 551 b 432 441 412 514 423 477 b 228 441 364 441 296 441 b 234 275 241 385 245 332 b 191 110 222 220 203 166 b 451 110 278 110 365 110 b 451 0 446 72 445 38 b 81 0 328 0 204 0 z m 289 1032 b 124 1209 234 1091 175 1146 b 211 1209 153 1209 182 1209 b 290 1117 236 1177 263 1146 b 331 1209 302 1148 315 1179 b 418 1209 360 1209 389 1209 b 337 1032 386 1152 364 1091 b 289 1032 321 1032 305 1032 z "},"Ğ":{"ha":626,"x_min":0,"x_max":0,"o":"m 287 0 b 118 67 226 0 161 23 b 85 228 74 112 70 170 b 106 373 98 275 109 323 b 79 498 103 415 91 457 b 53 615 68 536 57 575 b 73 767 47 667 59 717 b 174 929 90 828 129 885 b 330 995 216 970 270 996 b 506 948 391 995 452 980 b 519 940 511 944 514 943 b 493 797 518 890 507 844 b 459 835 482 809 470 822 b 332 885 426 872 378 885 b 240 851 299 886 266 872 b 183 767 214 830 192 800 b 163 615 169 717 158 667 b 189 498 167 575 178 536 b 216 373 201 457 213 415 b 195 228 219 323 208 275 b 207 144 189 199 188 169 b 284 110 225 120 256 111 b 399 138 323 109 363 120 b 438 416 421 233 455 317 b 302 416 392 416 347 416 b 273 524 294 452 283 488 b 519 524 355 524 437 524 b 551 304 540 452 562 381 b 500 85 539 230 509 160 b 490 76 496 81 494 80 b 287 0 428 28 366 2 b 287 0 287 0 287 0 z m 311 1040 b 197 1169 243 1040 197 1104 b 197 1185 197 1175 197 1179 b 256 1185 217 1185 237 1185 b 259 1175 258 1181 258 1179 b 330 1121 262 1141 301 1121 b 393 1174 359 1121 383 1149 b 396 1185 394 1179 395 1181 b 456 1185 416 1185 436 1185 b 457 1169 456 1178 456 1175 b 424 1078 461 1134 450 1102 b 311 1040 391 1047 357 1040 z "},"Ġ":{"ha":626,"x_min":0,"x_max":0,"o":"m 287 0 b 118 67 226 0 161 23 b 85 228 74 112 70 170 b 106 373 98 275 109 323 b 79 498 103 415 91 457 b 53 615 68 536 57 575 b 73 767 47 667 59 717 b 174 929 90 828 129 885 b 330 995 216 970 270 996 b 506 948 391 995 452 980 b 519 940 511 944 514 943 b 493 797 518 890 507 844 b 459 835 482 809 470 822 b 332 885 426 872 378 885 b 240 851 299 886 266 872 b 183 767 214 830 192 800 b 163 615 169 717 158 667 b 189 498 167 575 178 536 b 216 373 201 457 213 415 b 195 228 219 323 208 275 b 207 144 189 199 188 169 b 284 110 225 120 256 111 b 399 138 323 109 363 120 b 438 416 421 233 455 317 b 302 416 392 416 347 416 b 273 524 294 452 283 488 b 519 524 355 524 437 524 b 551 304 540 452 562 381 b 500 85 539 230 509 160 b 490 76 496 81 494 80 b 287 0 428 28 366 2 b 287 0 287 0 287 0 z m 283 1058 b 253 1167 274 1094 263 1130 b 335 1167 280 1167 308 1167 b 365 1058 344 1130 355 1094 b 283 1058 337 1058 310 1058 z "},"Ģ":{"ha":626,"x_min":0,"x_max":0,"o":"m 287 0 b 118 67 226 0 161 23 b 85 228 74 112 70 170 b 106 373 98 275 109 323 b 79 498 103 415 91 457 b 53 615 68 536 57 575 b 73 767 47 667 59 717 b 174 929 90 828 129 885 b 330 995 216 970 270 996 b 506 948 391 995 452 980 b 519 940 511 944 514 943 b 493 797 518 890 507 844 b 459 835 482 809 470 822 b 332 885 426 872 378 885 b 240 851 299 886 266 872 b 183 767 214 830 192 800 b 163 615 169 717 158 667 b 189 498 167 575 178 536 b 216 373 201 457 213 415 b 195 228 219 323 208 275 b 207 144 189 199 188 169 b 284 110 225 120 256 111 b 399 138 323 109 363 120 b 438 416 421 233 455 317 b 302 416 392 416 347 416 b 273 524 294 452 283 488 b 519 524 355 524 437 524 b 551 304 540 452 562 381 b 500 85 539 230 509 160 b 490 76 496 81 494 80 b 287 0 428 28 366 2 b 287 0 287 0 287 0 z m 338 -17 b 323 -114 328 -50 322 -81 b 328 -178 325 -135 330 -157 b 271 -221 325 -205 302 -222 b 255 -221 265 -221 262 -221 b 241 -175 250 -206 245 -190 b 246 -175 243 -175 244 -175 b 264 -156 257 -175 264 -168 b 262 -128 265 -146 263 -135 b 230 -128 249 -128 243 -128 b 242 -17 225 -90 232 -54 b 338 -17 274 -17 306 -17 z "},"Ĥ":{"ha":667,"x_min":0,"x_max":0,"o":"m 429 0 b 458 220 418 78 437 146 b 466 441 479 297 484 363 b 228 441 387 441 307 441 b 220 220 246 363 241 297 b 191 0 199 146 180 78 b 81 0 155 0 118 0 b 123 272 67 96 103 179 b 104 491 139 348 125 417 b 85 711 83 565 68 634 b 127 982 105 803 141 886 b 237 982 163 982 200 982 b 209 766 248 906 230 839 b 198 551 189 692 181 627 b 436 551 277 551 357 551 b 448 766 419 627 427 692 b 475 982 468 839 486 906 b 585 982 512 982 548 982 b 543 711 599 886 563 803 b 562 491 527 634 541 565 b 581 272 583 417 598 348 b 540 0 561 179 525 96 b 429 0 503 0 466 0 z m 433 1024 b 348 1116 405 1055 377 1085 b 314 1024 337 1085 326 1054 b 226 1024 285 1024 256 1024 b 307 1201 253 1083 275 1144 b 356 1201 323 1201 339 1201 b 521 1024 407 1138 465 1083 b 433 1024 492 1024 463 1024 z "},"Ħ":{"ha":921,"x_min":0,"x_max":0,"o":"m 99 718 b 78 828 96 756 88 791 b 822 828 326 828 574 828 b 843 718 832 791 840 756 b 99 718 595 718 347 718 z m 554 0 b 583 220 543 78 562 146 b 591 441 604 297 609 363 b 353 441 512 441 432 441 b 345 220 371 363 366 297 b 316 0 324 146 305 78 b 206 0 280 0 243 0 b 248 272 192 96 228 179 b 229 491 264 348 250 417 b 210 711 208 565 193 634 b 252 982 230 803 266 886 b 362 982 288 982 325 982 b 334 766 373 906 355 839 b 323 551 314 692 306 627 b 561 551 402 551 482 551 b 573 766 544 627 552 692 b 600 982 593 839 611 906 b 710 982 637 982 673 982 b 668 711 724 886 688 803 b 687 491 652 634 666 565 b 706 272 708 417 723 348 b 665 0 686 179 650 96 b 554 0 628 0 591 0 z "},"Ī":{"ha":318,"x_min":0,"x_max":0,"o":"m 81 0 b 123 272 67 96 103 179 b 104 491 139 348 125 417 b 85 711 83 565 68 634 b 127 982 105 803 141 886 b 237 982 163 982 200 982 b 195 711 251 886 215 803 b 214 491 178 634 193 565 b 233 272 235 417 249 348 b 191 0 213 179 177 96 b 81 0 155 0 118 0 z m 74 1036 b 55 1119 72 1074 64 1069 b 253 1119 211 1119 96 1119 b 271 1036 262 1069 270 1074 b 74 1036 115 1036 230 1036 z "},"Į":{"ha":318,"x_min":0,"x_max":0,"o":"m 81 0 b 123 272 67 96 103 179 b 104 491 139 348 125 417 b 85 711 83 565 68 634 b 127 982 105 803 141 886 b 237 982 163 982 200 982 b 195 711 251 886 215 803 b 214 491 178 634 193 565 b 233 272 235 417 249 348 b 191 0 213 179 177 96 b 81 0 155 0 118 0 z m 123 -222 b 82 -214 107 -222 97 -218 b 24 -138 51 -204 29 -170 b 91 -5 15 -83 56 -43 b 96 0 93 -3 94 -2 b 174 0 124 0 145 0 b 131 -53 160 -18 146 -35 b 112 -82 126 -60 115 -74 b 113 -139 104 -98 94 -128 b 131 -142 118 -142 125 -143 b 137 -142 133 -142 135 -142 b 156 -138 141 -141 143 -141 b 172 -136 162 -137 166 -137 b 168 -214 172 -162 170 -188 b 159 -216 165 -215 163 -215 b 123 -222 150 -219 138 -222 z "},"İ":{"ha":318,"x_min":0,"x_max":0,"o":"m 81 0 b 123 272 67 96 103 179 b 104 491 139 348 125 417 b 85 711 83 565 68 634 b 127 982 105 803 141 886 b 237 982 163 982 200 982 b 195 711 251 886 215 803 b 214 491 178 634 193 565 b 233 272 235 417 249 348 b 191 0 213 179 177 96 b 81 0 155 0 118 0 z m 134 1030 b 104 1139 125 1066 114 1103 b 186 1139 131 1139 159 1139 b 216 1030 195 1103 206 1066 b 134 1030 188 1030 161 1030 z "},"Ĵ":{"ha":551,"x_min":0,"x_max":0,"o":"m 196 0 b 69 24 152 1 111 9 b 51 31 62 27 58 29 b 63 156 48 74 53 114 b 98 135 75 149 87 142 b 194 110 129 118 160 111 b 286 145 227 109 260 124 b 343 228 312 166 334 195 b 354 432 362 297 371 361 b 311 608 341 491 319 548 b 360 989 296 739 379 856 b 470 989 396 989 433 989 b 422 608 489 856 406 739 b 465 432 429 548 451 491 b 453 228 481 361 472 297 b 352 67 436 167 397 110 b 196 0 310 25 256 -1 z m 489 1024 b 404 1116 461 1055 432 1085 b 370 1024 393 1085 382 1054 b 282 1024 340 1024 311 1024 b 363 1201 308 1083 330 1144 b 411 1201 379 1201 395 1201 b 576 1024 462 1138 521 1083 b 489 1024 547 1024 518 1024 z "},"Ķ":{"ha":586,"x_min":0,"x_max":0,"o":"m 434 0 b 361 206 394 65 376 131 b 283 412 347 282 325 347 b 240 315 272 378 258 346 b 191 0 226 207 175 111 b 81 0 155 0 118 0 b 123 272 67 96 103 179 b 104 491 139 348 125 417 b 85 711 83 565 68 634 b 127 982 105 803 141 886 b 237 982 163 982 200 982 b 210 769 248 907 230 841 b 196 557 190 696 181 632 b 454 982 245 721 397 822 b 577 982 495 982 536 982 b 434 759 547 897 489 829 b 314 536 379 690 337 622 b 470 268 376 452 445 372 b 555 0 494 173 502 85 b 434 0 515 0 474 0 z m 359 -56 b 343 -186 348 -99 341 -141 b 348 -271 345 -214 351 -243 b 282 -329 345 -307 319 -329 b 264 -329 275 -329 272 -329 b 247 -266 259 -308 253 -287 b 253 -266 250 -266 251 -266 b 275 -241 267 -266 274 -257 b 272 -203 276 -228 273 -213 b 235 -203 257 -203 250 -203 b 249 -56 230 -152 237 -105 b 359 -56 286 -56 323 -56 z "},"Ĺ":{"ha":463,"x_min":0,"x_max":0,"o":"m 81 0 b 123 272 67 96 103 179 b 104 491 139 348 125 417 b 85 711 83 565 68 634 b 127 982 105 803 141 886 b 235 982 163 982 199 982 b 202 744 248 898 223 824 b 198 546 184 676 181 614 b 240 348 214 481 240 416 b 190 110 241 267 206 189 b 451 110 277 110 364 110 b 451 0 446 72 445 38 b 81 0 328 0 204 0 z m 214 1018 b 290 1222 237 1088 254 1158 b 197 1222 259 1222 228 1222 b 136 1018 166 1157 154 1087 b 214 1018 162 1018 188 1018 z "},"Ļ":{"ha":463,"x_min":0,"x_max":0,"o":"m 81 0 b 123 272 67 96 103 179 b 104 491 139 348 125 417 b 85 711 83 565 68 634 b 127 982 105 803 141 886 b 235 982 163 982 199 982 b 202 744 248 898 223 824 b 198 546 184 676 181 614 b 240 348 214 481 240 416 b 190 110 241 267 206 189 b 451 110 277 110 364 110 b 451 0 446 72 445 38 b 81 0 328 0 204 0 z m 303 -59 b 289 -156 293 -91 287 -123 b 293 -220 291 -177 295 -199 b 236 -263 290 -247 268 -263 b 221 -263 230 -263 227 -263 b 206 -216 216 -247 211 -232 b 211 -216 208 -216 209 -216 b 230 -197 223 -216 229 -210 b 227 -169 230 -188 228 -177 b 195 -169 214 -169 208 -169 b 208 -59 191 -131 197 -96 b 303 -59 240 -59 271 -59 z "},"Ľ":{"ha":463,"x_min":0,"x_max":0,"o":"m 81 0 b 123 272 67 96 103 179 b 104 491 139 348 125 417 b 85 711 83 565 68 634 b 127 982 105 803 141 886 b 235 982 163 982 199 982 b 202 744 248 898 223 824 b 198 546 184 676 181 614 b 240 348 214 481 240 416 b 190 110 241 267 206 189 b 451 110 277 110 364 110 b 451 0 446 72 445 38 b 81 0 328 0 204 0 z m 462 980 b 445 851 451 937 443 895 b 450 766 448 822 453 794 b 385 708 447 729 421 707 b 367 708 378 708 374 708 b 350 770 361 728 355 749 b 356 770 352 770 353 770 b 377 796 369 770 376 779 b 374 833 378 808 376 823 b 337 833 360 833 352 833 b 352 980 332 884 339 931 b 462 980 389 980 425 980 z "},"Ŀ":{"ha":463,"x_min":0,"x_max":0,"o":"m 81 0 b 123 272 67 96 103 179 b 104 491 139 348 125 417 b 85 711 83 565 68 634 b 127 982 105 803 141 886 b 235 982 163 982 199 982 b 202 744 248 898 223 824 b 198 546 184 676 181 614 b 240 348 214 481 240 416 b 190 110 241 267 206 189 b 451 110 277 110 364 110 b 451 0 446 72 445 38 b 81 0 328 0 204 0 z m 341 415 b 355 563 335 466 343 514 b 465 563 392 563 428 563 b 450 415 453 514 445 466 b 341 415 414 415 377 415 z "},"Ł":{"ha":554,"x_min":0,"x_max":0,"o":"m 127 390 b 78 491 114 426 97 458 b 398 577 185 520 291 548 b 447 476 417 544 434 512 b 127 390 340 448 233 419 z m 173 0 b 215 272 159 96 195 179 b 196 491 231 348 217 417 b 177 711 175 565 160 634 b 218 982 197 803 233 886 b 327 982 255 982 291 982 b 294 744 340 898 315 824 b 289 546 276 676 273 614 b 332 348 305 481 332 416 b 282 110 333 267 298 189 b 543 110 369 110 456 110 b 543 0 537 72 537 38 b 173 0 420 0 296 0 z "},"Ń":{"ha":669,"x_min":0,"x_max":0,"o":"m 439 0 b 388 176 409 56 395 113 b 365 327 383 227 380 278 b 187 655 327 447 227 536 b 241 327 183 542 248 440 b 191 0 233 214 174 116 b 81 0 154 0 118 0 b 123 272 67 96 103 179 b 104 491 139 348 125 417 b 85 711 83 565 68 634 b 127 982 105 803 141 886 b 230 982 161 982 195 982 b 280 806 260 926 274 869 b 304 654 286 755 289 704 b 482 326 342 534 442 446 b 429 654 487 439 421 542 b 479 982 436 768 496 866 b 589 982 516 982 552 982 b 547 711 603 886 567 803 b 565 491 530 634 545 565 b 584 272 586 417 601 348 b 542 0 564 179 528 96 b 439 0 508 0 473 0 z m 405 1032 b 482 1236 429 1102 446 1172 b 388 1236 451 1236 420 1236 b 328 1032 357 1171 346 1101 b 405 1032 354 1032 379 1032 z "},"Ņ":{"ha":669,"x_min":0,"x_max":0,"o":"m 439 0 b 388 176 409 56 395 113 b 365 327 383 227 380 278 b 187 655 327 447 227 536 b 241 327 183 542 248 440 b 191 0 233 214 174 116 b 81 0 154 0 118 0 b 123 272 67 96 103 179 b 104 491 139 348 125 417 b 85 711 83 565 68 634 b 127 982 105 803 141 886 b 230 982 161 982 195 982 b 280 806 260 926 274 869 b 304 654 286 755 289 704 b 482 326 342 534 442 446 b 429 654 487 439 421 542 b 479 982 436 768 496 866 b 589 982 516 982 552 982 b 547 711 603 886 567 803 b 565 491 530 634 545 565 b 584 272 586 417 601 348 b 542 0 564 179 528 96 b 439 0 508 0 473 0 z m 365 -45 b 350 -142 355 -77 349 -109 b 355 -206 352 -163 357 -185 b 298 -249 352 -233 329 -249 b 283 -249 292 -249 289 -249 b 268 -202 278 -234 272 -218 b 273 -202 270 -202 271 -202 b 292 -183 285 -202 291 -196 b 289 -155 292 -174 290 -163 b 257 -155 276 -155 270 -155 b 270 -45 252 -117 259 -82 b 365 -45 301 -45 333 -45 z "},"Ň":{"ha":669,"x_min":0,"x_max":0,"o":"m 439 0 b 388 176 409 56 395 113 b 365 327 383 227 380 278 b 187 655 327 447 227 536 b 241 327 183 542 248 440 b 191 0 233 214 174 116 b 81 0 154 0 118 0 b 123 272 67 96 103 179 b 104 491 139 348 125 417 b 85 711 83 565 68 634 b 127 982 105 803 141 886 b 230 982 161 982 195 982 b 280 806 260 926 274 869 b 304 654 286 755 289 704 b 482 326 342 534 442 446 b 429 654 487 439 421 542 b 479 982 436 768 496 866 b 589 982 516 982 552 982 b 547 711 603 886 567 803 b 565 491 530 634 545 565 b 584 272 586 417 601 348 b 542 0 564 179 528 96 b 439 0 508 0 473 0 z m 336 1032 b 170 1209 280 1091 221 1146 b 258 1209 200 1209 229 1209 b 337 1117 283 1177 309 1146 b 377 1209 349 1148 361 1179 b 465 1209 406 1209 436 1209 b 384 1032 432 1152 410 1091 b 336 1032 368 1032 352 1032 z "},"Ō":{"ha":613,"x_min":0,"x_max":0,"o":"m 285 0 b 117 67 224 0 159 23 b 84 229 74 111 67 171 b 104 373 97 276 108 324 b 77 498 101 416 89 457 b 51 615 67 536 55 575 b 71 767 46 667 58 717 b 328 996 103 879 205 996 b 496 929 388 996 453 973 b 529 767 539 885 545 825 b 509 615 515 717 504 667 b 535 498 513 575 524 536 b 562 373 546 457 559 416 b 541 229 565 324 554 276 b 285 0 510 117 408 0 z m 330 886 b 181 767 263 886 199 830 b 161 615 167 717 156 667 b 187 498 165 575 176 536 b 214 373 199 457 211 416 b 194 229 218 324 207 276 b 283 110 176 166 216 110 b 431 229 350 110 413 166 b 452 373 444 276 455 324 b 425 498 449 416 437 457 b 399 615 414 536 403 575 b 419 767 394 667 405 717 b 330 886 437 830 396 886 z m 226 1050 b 207 1133 224 1088 216 1083 b 405 1133 363 1133 249 1133 b 424 1050 414 1083 422 1088 b 226 1050 267 1050 382 1050 z "},"Ő":{"ha":613,"x_min":0,"x_max":0,"o":"m 285 0 b 117 67 224 0 159 23 b 84 229 74 111 67 171 b 104 373 97 276 108 324 b 77 498 101 416 89 457 b 51 615 67 536 55 575 b 71 767 46 667 58 717 b 328 996 103 879 205 996 b 496 929 388 996 453 973 b 529 767 539 885 545 825 b 509 615 515 717 504 667 b 535 498 513 575 524 536 b 562 373 546 457 559 416 b 541 229 565 324 554 276 b 285 0 510 117 408 0 z m 330 886 b 181 767 263 886 199 830 b 161 615 167 717 156 667 b 187 498 165 575 176 536 b 214 373 199 457 211 416 b 194 229 218 324 207 276 b 283 110 176 166 216 110 b 431 229 350 110 413 166 b 452 373 444 276 455 324 b 425 498 449 416 437 457 b 399 615 414 536 403 575 b 419 767 394 667 405 717 b 330 886 437 830 396 886 z m 316 1032 b 392 1236 339 1102 356 1172 b 299 1236 361 1236 330 1236 b 238 1032 268 1171 256 1101 b 316 1032 264 1032 290 1032 z m 427 1032 b 503 1236 450 1102 467 1172 b 410 1236 472 1236 441 1236 b 349 1032 379 1171 367 1101 b 427 1032 375 1032 401 1032 z "},"Œ":{"ha":858,"x_min":0,"x_max":0,"o":"m 293 0 b 68 229 172 0 30 94 b 101 373 82 276 97 324 b 87 498 105 416 98 457 b 57 767 64 590 37 671 b 331 996 84 884 211 998 b 450 963 372 995 414 986 b 450 989 450 973 450 978 b 820 989 573 989 697 989 b 805 879 820 951 814 916 b 545 879 718 879 631 879 b 506 718 530 826 512 773 b 528 558 500 663 513 610 b 733 558 596 558 665 558 b 761 448 743 521 754 485 b 556 448 692 448 624 448 b 505 117 572 332 513 230 b 765 117 591 117 678 117 b 780 7 765 79 771 44 b 410 7 656 7 533 7 b 403 33 407 17 406 23 b 293 0 368 11 334 2 z m 318 886 b 167 767 251 886 182 832 b 197 498 147 671 174 590 b 211 373 208 457 215 416 b 178 229 207 324 191 276 b 276 110 159 164 211 110 b 416 229 343 110 398 167 b 449 373 429 276 445 324 b 435 498 453 416 445 457 b 404 767 411 590 385 671 b 318 886 419 829 384 886 z "},"Ŕ":{"ha":588,"x_min":0,"x_max":0,"o":"m 314 375 b 292 374 306 375 299 374 b 240 374 275 374 257 374 b 191 0 249 245 172 130 b 81 0 154 0 118 0 b 123 272 67 97 103 180 b 104 491 139 349 125 417 b 85 711 83 566 68 634 b 127 982 105 803 141 886 b 284 982 179 982 231 982 b 508 876 361 981 471 954 b 512 678 536 814 521 743 b 487 480 503 614 510 543 b 417 404 475 445 448 423 b 486 202 456 340 474 276 b 552 0 497 129 514 64 b 432 0 512 0 472 0 b 368 188 397 60 379 120 b 314 375 357 254 345 315 z m 262 484 b 379 540 303 485 362 495 b 402 678 395 583 396 633 b 402 817 408 723 417 772 b 285 873 386 860 325 871 b 236 873 269 873 253 873 b 189 678 223 807 198 744 b 216 484 180 611 197 548 b 262 484 231 484 247 484 z m 323 1032 b 400 1236 347 1101 364 1172 b 306 1236 369 1236 338 1236 b 246 1032 275 1171 264 1101 b 323 1032 271 1032 297 1032 z "},"Ŗ":{"ha":588,"x_min":0,"x_max":0,"o":"m 314 375 b 292 374 306 375 299 374 b 240 374 275 374 257 374 b 191 0 249 245 172 130 b 81 0 154 0 118 0 b 123 272 67 97 103 180 b 104 491 139 349 125 417 b 85 711 83 566 68 634 b 127 982 105 803 141 886 b 284 982 179 982 231 982 b 508 876 361 981 471 954 b 512 678 536 814 521 743 b 487 480 503 614 510 543 b 417 404 475 445 448 423 b 486 202 456 340 474 276 b 552 0 497 129 514 64 b 432 0 512 0 472 0 b 368 188 397 60 379 120 b 314 375 357 254 345 315 z m 262 484 b 379 540 303 485 362 495 b 402 678 395 583 396 633 b 402 817 408 723 417 772 b 285 873 386 860 325 871 b 236 873 269 873 253 873 b 189 678 223 807 198 744 b 216 484 180 611 197 548 b 262 484 231 484 247 484 z m 350 -45 b 335 -142 340 -77 334 -109 b 340 -206 337 -163 342 -185 b 283 -249 337 -233 314 -250 b 268 -249 277 -249 274 -249 b 253 -202 262 -234 257 -218 b 258 -202 255 -202 256 -202 b 276 -183 269 -202 276 -196 b 274 -155 277 -174 275 -163 b 242 -155 261 -155 255 -155 b 254 -45 237 -117 244 -82 b 350 -45 286 -45 318 -45 z "},"Ř":{"ha":588,"x_min":0,"x_max":0,"o":"m 314 375 b 292 374 306 375 299 374 b 240 374 275 374 257 374 b 191 0 249 245 172 130 b 81 0 154 0 118 0 b 123 272 67 97 103 180 b 104 491 139 349 125 417 b 85 711 83 566 68 634 b 127 982 105 803 141 886 b 284 982 179 982 231 982 b 508 876 361 981 471 954 b 512 678 536 814 521 743 b 487 480 503 614 510 543 b 417 404 475 445 448 423 b 486 202 456 340 474 276 b 552 0 497 129 514 64 b 432 0 512 0 472 0 b 368 188 397 60 379 120 b 314 375 357 254 345 315 z m 262 484 b 379 540 303 485 362 495 b 402 678 395 583 396 633 b 402 817 408 723 417 772 b 285 873 386 860 325 871 b 236 873 269 873 253 873 b 189 678 223 807 198 744 b 216 484 180 611 197 548 b 262 484 231 484 247 484 z m 251 1032 b 86 1209 196 1091 137 1146 b 173 1209 115 1209 144 1209 b 252 1117 198 1177 225 1146 b 293 1209 264 1148 277 1179 b 380 1209 322 1209 351 1209 b 300 1032 348 1152 326 1091 b 251 1032 283 1032 267 1032 z "},"Ś":{"ha":556,"x_min":0,"x_max":0,"o":"m 238 0 b 61 48 176 1 114 15 b 48 56 56 51 53 53 b 73 198 49 105 60 151 b 108 160 85 185 96 173 b 236 110 142 124 188 111 b 388 232 303 109 370 167 b 223 497 421 350 303 433 b 55 791 131 572 16 657 b 281 996 84 891 170 997 b 458 948 343 995 404 981 b 471 940 463 945 466 943 b 446 798 470 891 459 845 b 411 836 434 811 423 823 b 283 886 378 873 330 885 b 165 791 230 887 179 842 b 283 573 138 699 221 626 b 498 232 384 486 542 387 b 260 1 468 127 374 12 b 261 0 260 1 260 1 b 238 0 252 0 247 0 z m 336 1046 b 412 1250 359 1115 376 1186 b 319 1250 381 1250 350 1250 b 258 1046 288 1185 276 1115 b 336 1046 284 1046 310 1046 z "},"Ş":{"ha":556,"x_min":0,"x_max":0,"o":"m 48 56 b 73 198 49 105 60 151 b 108 160 85 185 96 173 b 236 110 142 124 188 111 b 388 232 303 109 370 167 b 223 497 421 350 303 433 b 55 791 131 572 16 657 b 281 996 84 891 170 997 b 458 948 343 995 404 981 b 471 940 463 945 466 943 b 446 798 470 891 459 845 b 411 836 434 811 423 823 b 283 886 378 873 330 885 b 165 791 230 887 179 841 b 283 573 138 699 221 626 b 498 232 384 486 542 387 b 264 2 469 128 376 15 b 241 -45 256 -13 249 -31 b 300 -105 267 -57 289 -79 b 305 -120 303 -110 304 -115 b 231 -206 317 -166 276 -206 b 171 -182 209 -206 187 -196 b 154 -168 164 -177 161 -174 b 190 -125 167 -154 178 -140 b 206 -136 196 -129 200 -131 b 219 -140 211 -139 215 -140 b 235 -120 231 -140 238 -131 b 211 -99 233 -109 221 -100 l 202 -99 b 167 -68 190 -89 179 -78 b 189 4 174 -47 182 -18 b 61 48 144 10 100 24 b 48 56 56 51 53 53 z "},"Š":{"ha":556,"x_min":0,"x_max":0,"o":"m 238 0 b 61 48 176 1 114 15 b 48 56 56 51 53 53 b 73 198 49 105 60 151 b 108 160 85 185 96 173 b 236 110 142 124 188 111 b 388 232 303 109 370 167 b 223 497 421 350 303 433 b 55 791 131 572 16 657 b 281 996 84 891 170 997 b 458 948 343 995 404 981 b 471 940 463 945 466 943 b 446 798 470 891 459 845 b 411 836 434 811 423 823 b 283 886 378 873 330 885 b 165 791 230 887 179 842 b 283 573 138 699 221 626 b 498 232 384 486 542 387 b 260 1 468 127 374 12 b 261 0 260 1 260 1 b 238 0 252 0 247 0 z m 264 1032 b 99 1209 209 1091 150 1146 b 186 1209 128 1209 157 1209 b 265 1117 211 1177 238 1146 b 305 1209 277 1148 290 1179 b 393 1209 335 1209 364 1209 b 312 1032 361 1152 339 1091 b 264 1032 296 1032 280 1032 z "},"Ť":{"ha":453,"x_min":0,"x_max":0,"o":"m 124 0 b 158 238 112 84 136 158 b 162 436 175 306 178 368 b 119 634 146 501 120 566 b 169 872 118 716 154 793 b 17 872 118 872 68 872 b 17 982 23 910 23 944 b 432 982 155 982 294 982 b 432 872 438 944 438 910 b 279 872 381 872 330 872 b 229 634 264 793 228 716 b 272 436 230 566 256 501 b 267 238 288 368 285 306 b 234 0 246 158 221 84 b 124 0 197 0 161 0 z m 210 1032 b 44 1209 154 1091 95 1146 b 132 1209 73 1209 103 1209 b 210 1117 156 1177 183 1146 b 251 1209 222 1148 235 1179 b 339 1209 280 1209 309 1209 b 258 1032 306 1152 284 1091 b 210 1032 242 1032 226 1032 z "},"Ŧ":{"ha":453,"x_min":0,"x_max":0,"o":"m 124 0 b 158 238 112 84 136 158 b 162 436 175 306 178 368 b 119 634 146 501 120 566 b 169 872 118 716 154 793 b 17 872 118 872 68 872 b 17 982 23 910 23 944 b 432 982 155 982 294 982 b 432 872 438 944 438 910 b 279 872 381 872 330 872 b 229 634 264 793 228 716 b 272 436 230 566 256 501 b 267 238 288 368 285 306 b 234 0 246 158 221 84 b 124 0 197 0 161 0 z m 101 492 b 82 576 100 530 91 525 b 280 576 238 576 124 576 b 299 492 289 525 298 530 b 101 492 143 492 257 492 z "},"Ū":{"ha":661,"x_min":0,"x_max":0,"o":"m 310 0 b 142 67 249 0 184 23 b 109 229 99 111 92 171 b 120 433 128 298 136 362 b 77 609 106 492 84 549 b 125 989 61 740 145 857 b 235 989 162 989 198 989 b 187 609 255 857 171 740 b 230 433 194 549 216 492 b 219 229 246 362 238 298 b 308 110 201 166 241 110 b 456 229 375 110 439 166 b 467 433 475 298 484 362 b 425 609 454 492 432 549 b 473 989 409 740 493 857 b 583 989 509 989 546 989 b 534 609 602 857 519 740 b 577 433 542 549 564 492 b 566 229 594 362 585 298 b 310 0 535 117 433 0 z m 252 1050 b 233 1133 251 1088 243 1083 b 431 1133 390 1133 275 1133 b 450 1050 440 1083 449 1088 b 252 1050 294 1050 408 1050 z "},"Ů":{"ha":661,"x_min":0,"x_max":0,"o":"m 310 0 b 142 67 249 0 184 23 b 109 229 99 111 92 171 b 120 433 128 298 136 362 b 77 609 106 492 84 549 b 125 989 61 740 145 857 b 235 989 162 989 198 989 b 187 609 255 857 171 740 b 230 433 194 549 216 492 b 219 229 246 362 238 298 b 308 110 201 166 241 110 b 456 229 375 110 439 166 b 467 433 475 298 484 362 b 425 609 454 492 432 549 b 473 989 409 740 493 857 b 583 989 509 989 546 989 b 534 609 602 857 519 740 b 577 433 542 549 564 492 b 566 229 594 362 585 298 b 310 0 535 117 433 0 z m 319 1209 b 249 1120 273 1208 236 1167 b 362 1032 262 1074 313 1032 b 426 1120 409 1032 439 1075 b 319 1209 413 1165 369 1209 z m 348 1084 b 301 1120 327 1083 306 1102 b 328 1157 296 1137 308 1158 b 374 1120 348 1156 368 1139 b 348 1084 379 1102 366 1084 z "},"Ű":{"ha":661,"x_min":0,"x_max":0,"o":"m 310 0 b 142 67 249 0 184 23 b 109 229 99 111 92 171 b 120 433 128 298 136 362 b 77 609 106 492 84 549 b 125 989 61 740 145 857 b 235 989 162 989 198 989 b 187 609 255 857 171 740 b 230 433 194 549 216 492 b 219 229 246 362 238 298 b 308 110 201 166 241 110 b 456 229 375 110 439 166 b 467 433 475 298 484 362 b 425 609 454 492 432 549 b 473 989 409 740 493 857 b 583 989 509 989 546 989 b 534 609 602 857 519 740 b 577 433 542 549 564 492 b 566 229 594 362 585 298 b 310 0 535 117 433 0 z m 330 1046 b 406 1250 353 1115 370 1186 b 313 1250 375 1250 344 1250 b 252 1046 282 1185 270 1115 b 330 1046 278 1046 304 1046 z m 441 1046 b 517 1250 464 1115 481 1186 b 424 1250 486 1250 455 1250 b 363 1046 393 1185 381 1115 b 441 1046 389 1046 415 1046 z "},"Ų":{"ha":661,"x_min":0,"x_max":0,"o":"m 77 609 b 125 989 61 740 145 857 l 235 989 b 187 609 255 857 171 740 b 230 433 194 549 216 492 b 219 229 246 362 238 298 b 308 110 201 166 241 110 b 456 229 375 110 439 166 b 467 433 475 298 484 362 b 425 609 454 492 432 549 b 473 989 409 740 493 857 l 583 989 b 534 609 602 857 519 740 b 577 433 542 549 564 492 b 566 229 594 362 585 298 b 382 14 541 140 472 48 b 327 -53 366 -6 340 -38 b 307 -82 322 -60 311 -74 b 309 -139 300 -98 290 -128 b 327 -143 314 -142 321 -143 b 333 -142 329 -142 331 -142 b 352 -138 337 -141 339 -141 b 368 -136 358 -137 361 -137 b 364 -214 368 -162 365 -188 b 355 -216 360 -215 358 -215 b 319 -222 345 -219 334 -222 b 278 -214 303 -222 292 -218 b 220 -138 247 -204 225 -170 b 280 0 211 -83 246 -38 b 281 2 280 0 281 1 b 142 67 230 8 178 30 b 109 229 99 111 92 171 b 120 433 128 298 136 362 b 77 609 106 492 84 549 z "},"Ŵ":{"ha":874,"x_min":0,"x_max":0,"o":"m 510 0 b 494 178 490 59 488 116 b 500 324 498 226 505 275 b 387 648 488 440 407 534 b 382 324 366 540 410 431 b 274 0 353 212 278 120 b 172 0 240 0 206 0 b 164 272 142 92 161 177 b 105 491 167 352 139 420 b 47 711 72 562 44 631 b 39 982 50 805 69 890 b 151 982 76 982 113 982 b 167 812 169 926 173 871 b 160 658 163 761 155 710 b 273 334 172 543 253 448 b 278 658 294 442 250 551 b 386 982 307 771 382 863 b 488 982 420 982 454 982 b 505 812 507 926 510 871 b 497 658 500 761 492 710 b 611 334 510 543 591 448 b 615 658 631 442 588 551 b 724 982 644 771 720 863 b 835 982 761 982 798 982 b 746 714 832 884 782 804 b 723 491 716 640 715 570 b 701 268 731 412 731 342 b 611 0 665 179 615 99 b 510 0 577 0 544 0 z m 508 1024 b 423 1116 480 1055 451 1085 b 388 1024 411 1085 400 1054 b 301 1024 359 1024 330 1024 b 382 1201 327 1083 349 1144 b 430 1201 398 1201 414 1201 b 595 1024 481 1138 540 1083 b 508 1024 566 1024 537 1024 z "},"Ŷ":{"ha":550,"x_min":0,"x_max":0,"o":"m 174 0 b 200 209 163 73 180 139 b 216 418 220 280 231 344 b 72 700 162 509 91 593 b 58 830 64 743 63 787 b 11 982 51 885 36 934 b 128 982 50 982 89 982 b 229 586 194 856 164 712 b 421 982 262 733 389 835 b 538 982 460 982 499 982 b 390 700 515 875 443 794 b 326 418 340 610 340 517 b 310 209 340 344 330 280 b 284 0 290 139 273 74 b 174 0 248 0 211 0 z m 335 1024 b 250 1116 307 1055 278 1085 b 216 1024 239 1085 228 1054 b 128 1024 186 1024 157 1024 b 209 1201 154 1083 176 1144 b 257 1201 225 1201 241 1201 b 423 1024 308 1138 367 1083 b 335 1024 393 1024 364 1024 z "},"ÿ":{"ha":550,"x_min":0,"x_max":0,"o":"m 174 0 b 200 209 163 73 180 139 b 216 418 220 280 231 344 b 72 700 162 509 91 593 b 58 830 64 743 63 787 b 11 982 51 885 36 934 b 128 982 50 982 89 982 b 229 586 194 856 164 712 b 421 982 262 733 389 835 b 538 982 460 982 499 982 b 390 700 515 875 443 794 b 326 418 340 610 340 517 b 310 209 340 344 330 280 b 284 0 290 139 273 74 b 174 0 248 0 211 0 z m 149 1044 b 119 1153 140 1080 129 1116 b 201 1153 146 1153 173 1153 b 230 1044 210 1116 221 1080 b 149 1044 203 1044 176 1044 z m 316 1044 b 286 1153 306 1080 295 1116 b 367 1153 313 1153 340 1153 b 397 1044 377 1116 388 1080 b 316 1044 370 1044 343 1044 z "},"Ź":{"ha":558,"x_min":0,"x_max":0,"o":"m 39 69 b 171 292 75 148 130 216 b 219 471 201 349 214 407 b 251 649 225 531 228 592 b 383 872 284 729 341 797 b 105 872 290 872 198 872 b 105 982 111 910 111 944 b 515 982 242 982 378 982 b 520 913 519 959 521 936 b 388 690 484 834 429 766 b 340 511 358 633 345 575 b 308 333 334 451 331 390 b 176 110 275 253 218 185 b 469 110 274 110 371 110 b 468 0 463 72 463 38 b 44 0 327 0 185 0 b 39 69 40 23 38 46 z m 364 1032 b 440 1236 387 1102 404 1172 b 347 1236 409 1236 378 1236 b 286 1032 316 1171 304 1101 b 364 1032 312 1032 338 1032 z "},"Ż":{"ha":558,"x_min":0,"x_max":0,"o":"m 39 69 b 171 292 75 148 130 216 b 219 471 201 349 214 407 b 251 649 225 531 228 592 b 383 872 284 729 341 797 b 105 872 290 872 198 872 b 105 982 111 910 111 944 b 515 982 242 982 378 982 b 520 913 519 959 521 936 b 388 690 484 834 429 766 b 340 511 358 633 345 575 b 308 333 334 451 331 390 b 176 110 275 253 218 185 b 469 110 274 110 371 110 b 468 0 463 72 463 38 b 44 0 327 0 185 0 b 39 69 40 23 38 46 z m 273 1044 b 243 1153 264 1080 253 1116 b 325 1153 270 1153 297 1153 b 354 1044 334 1116 345 1080 b 273 1044 327 1044 300 1044 z "},"Ž":{"ha":558,"x_min":0,"x_max":0,"o":"m 39 69 b 171 292 75 148 130 216 b 219 471 201 349 214 407 b 251 649 225 531 228 592 b 383 872 284 729 341 797 b 105 872 290 872 198 872 b 105 982 111 910 111 944 b 515 982 242 982 378 982 b 520 913 519 959 521 936 b 388 690 484 834 429 766 b 340 511 358 633 345 575 b 308 333 334 451 331 390 b 176 110 275 253 218 185 b 469 110 274 110 371 110 b 468 0 463 72 463 38 b 44 0 327 0 185 0 b 39 69 40 23 38 46 z m 283 1032 b 118 1209 228 1091 169 1146 b 205 1209 147 1209 176 1209 b 284 1117 230 1177 257 1146 b 325 1209 296 1148 309 1179 b 412 1209 354 1209 383 1209 b 331 1032 380 1152 358 1091 b 283 1032 315 1032 299 1032 z "},"Ș":{"ha":556,"x_min":0,"x_max":0,"o":"m 238 0 b 61 48 176 1 114 15 b 48 56 56 51 53 53 b 73 198 49 105 60 151 b 108 160 85 185 96 173 b 236 110 142 124 188 111 b 388 232 303 109 370 167 b 223 497 421 350 303 433 b 55 791 131 572 16 657 b 281 996 84 891 170 997 b 458 948 343 995 404 981 b 471 940 463 945 466 943 b 446 798 470 891 459 845 b 411 836 434 811 423 823 b 283 886 378 873 330 885 b 165 791 230 887 179 842 b 283 573 138 699 221 626 b 498 232 384 486 542 387 b 260 1 468 127 374 12 b 261 0 260 1 260 1 b 238 0 252 0 247 0 z m 307 -45 b 293 -142 297 -77 291 -109 b 297 -206 295 -163 299 -185 b 240 -249 294 -233 272 -249 b 225 -249 234 -249 231 -249 b 210 -202 220 -234 215 -218 b 215 -202 212 -202 213 -202 b 234 -183 227 -202 233 -196 b 231 -155 234 -174 232 -163 b 199 -155 218 -155 212 -155 b 212 -45 194 -117 201 -82 b 307 -45 243 -45 275 -45 z "},"ˆ":{"ha":747,"x_min":0,"x_max":0,"o":"m 433 1024 b 348 1116 405 1055 377 1085 b 314 1024 337 1085 326 1054 b 226 1024 285 1024 256 1024 b 307 1201 253 1083 275 1144 b 356 1201 323 1201 339 1201 b 521 1024 407 1138 465 1083 b 433 1024 492 1024 463 1024 z "},"ˇ":{"ha":747,"x_min":0,"x_max":0,"o":"m 392 1032 b 226 1209 336 1091 277 1146 b 314 1209 256 1209 285 1209 b 393 1117 339 1177 365 1146 b 433 1209 405 1148 418 1179 b 521 1209 463 1209 492 1209 b 440 1032 488 1152 467 1091 b 392 1032 424 1032 408 1032 z "},"˘":{"ha":400,"x_min":0,"x_max":0,"o":"m 184 1040 b 70 1169 116 1040 70 1104 b 70 1185 70 1176 70 1179 b 129 1185 90 1185 109 1185 b 132 1175 131 1181 131 1179 b 203 1121 135 1141 174 1121 b 266 1175 231 1121 256 1149 b 269 1185 267 1179 268 1181 b 329 1185 289 1185 309 1185 b 330 1169 329 1179 329 1176 b 297 1078 334 1134 323 1102 b 184 1040 264 1047 230 1040 z "},"˙":{"ha":581,"x_min":0,"x_max":0,"o":"m 264 1058 b 235 1167 255 1094 244 1130 b 316 1167 262 1167 289 1167 b 346 1058 326 1130 337 1094 b 264 1058 319 1058 292 1058 z "},"˚":{"ha":651,"x_min":0,"x_max":0,"o":"m 308 1209 b 237 1120 261 1208 224 1167 b 350 1032 251 1074 301 1032 b 414 1120 397 1032 428 1075 b 308 1209 401 1165 357 1209 z m 336 1084 b 289 1120 315 1083 295 1102 b 317 1157 284 1137 296 1158 b 362 1120 337 1156 356 1139 b 336 1084 368 1102 355 1084 z "},"˛":{"ha":265,"x_min":0,"x_max":0,"o":"m 138 -222 b 97 -214 123 -222 112 -218 b 39 -138 66 -204 45 -170 b 106 -5 30 -83 72 -43 b 111 0 108 -3 109 -2 b 189 0 139 0 161 0 b 147 -53 175 -18 161 -35 b 127 -82 141 -60 131 -74 b 128 -139 119 -98 110 -128 b 146 -142 133 -142 140 -143 b 152 -142 148 -142 150 -142 b 171 -138 156 -141 158 -141 b 187 -136 178 -137 181 -137 b 184 -214 187 -162 185 -188 b 174 -216 180 -215 178 -215 b 138 -222 165 -219 154 -222 z "},"˜":{"ha":674,"x_min":0,"x_max":0,"o":"m 200 1086 b 204 1098 202 1091 202 1093 b 268 1165 212 1129 229 1165 b 321 1150 286 1165 304 1157 b 367 1135 335 1143 351 1135 b 391 1156 377 1134 384 1140 b 395 1166 393 1160 393 1162 b 452 1138 414 1157 433 1148 b 449 1127 451 1134 450 1132 b 384 1060 440 1095 423 1059 b 331 1075 365 1060 347 1067 b 286 1090 317 1081 301 1089 b 261 1068 276 1090 269 1084 b 256 1059 259 1064 258 1063 b 200 1086 238 1068 219 1077 z "},"˝":{"ha":658,"x_min":0,"x_max":0,"o":"m 262 1032 b 339 1236 286 1102 303 1172 b 245 1236 308 1236 277 1236 b 185 1032 214 1171 203 1101 b 262 1032 211 1032 236 1032 z m 373 1032 b 450 1236 397 1101 414 1172 b 357 1236 419 1236 388 1236 b 296 1032 325 1171 314 1101 b 373 1032 322 1032 347 1032 z "},"Ẁ":{"ha":874,"x_min":0,"x_max":0,"o":"m 510 0 b 494 178 490 59 488 116 b 500 324 498 226 505 275 b 387 648 488 440 407 534 b 382 324 366 540 410 431 b 274 0 353 212 278 120 b 172 0 240 0 206 0 b 164 272 142 92 161 177 b 105 491 167 352 139 420 b 47 711 72 562 44 631 b 39 982 50 805 69 890 b 151 982 76 982 113 982 b 167 812 169 926 173 871 b 160 658 163 761 155 710 b 273 334 172 543 253 448 b 278 658 294 442 250 551 b 386 982 307 771 382 863 b 488 982 420 982 454 982 b 505 812 507 926 510 871 b 497 658 500 761 492 710 b 611 334 510 543 591 448 b 615 658 631 442 588 551 b 724 982 644 771 720 863 b 835 982 761 982 798 982 b 746 714 832 884 782 804 b 723 491 716 640 715 570 b 701 268 731 412 731 342 b 611 0 665 179 615 99 b 510 0 577 0 544 0 z m 387 1026 b 223 1230 331 1093 269 1156 b 316 1230 254 1230 285 1230 b 464 1026 356 1156 413 1093 b 387 1026 439 1026 413 1026 z "},"Ẃ":{"ha":874,"x_min":0,"x_max":0,"o":"m 510 0 b 494 178 490 59 488 116 b 500 324 498 226 505 275 b 387 648 488 440 407 534 b 382 324 366 540 410 431 b 274 0 353 212 278 120 b 172 0 240 0 206 0 b 164 272 142 92 161 177 b 105 491 167 352 139 420 b 47 711 72 562 44 631 b 39 982 50 805 69 890 b 151 982 76 982 113 982 b 167 812 169 926 173 871 b 160 658 163 761 155 710 b 273 334 172 543 253 448 b 278 658 294 442 250 551 b 386 982 307 771 382 863 b 488 982 420 982 454 982 b 505 812 507 926 510 871 b 497 658 500 761 492 710 b 611 334 510 543 591 448 b 615 658 631 442 588 551 b 724 982 644 771 720 863 b 835 982 761 982 798 982 b 746 714 832 884 782 804 b 723 491 716 640 715 570 b 701 268 731 412 731 342 b 611 0 665 179 615 99 b 510 0 577 0 544 0 z m 473 1032 b 549 1236 496 1102 513 1172 b 456 1236 518 1236 487 1236 b 395 1032 425 1171 413 1101 b 473 1032 421 1032 447 1032 z "},"Ẅ":{"ha":874,"x_min":0,"x_max":0,"o":"m 510 0 b 494 178 490 59 488 116 b 500 324 498 226 505 275 b 387 648 488 440 407 534 b 382 324 366 540 410 431 b 274 0 353 212 278 120 b 172 0 240 0 206 0 b 164 272 142 92 161 177 b 105 491 167 352 139 420 b 47 711 72 562 44 631 b 39 982 50 805 69 890 b 151 982 76 982 113 982 b 167 812 169 926 173 871 b 160 658 163 761 155 710 b 273 334 172 543 253 448 b 278 658 294 442 250 551 b 386 982 307 771 382 863 b 488 982 420 982 454 982 b 505 812 507 926 510 871 b 497 658 500 761 492 710 b 611 334 510 543 591 448 b 615 658 631 442 588 551 b 724 982 644 771 720 863 b 835 982 761 982 798 982 b 746 714 832 884 782 804 b 723 491 716 640 715 570 b 701 268 731 412 731 342 b 611 0 665 179 615 99 b 510 0 577 0 544 0 z m 307 1058 b 278 1167 298 1094 287 1130 b 359 1167 305 1167 332 1167 b 389 1058 369 1130 380 1094 b 307 1058 362 1058 335 1058 z m 474 1058 b 444 1167 465 1094 454 1130 b 526 1167 472 1167 499 1167 b 556 1058 536 1130 547 1094 b 474 1058 529 1058 501 1058 z "},"Ỳ":{"ha":550,"x_min":0,"x_max":0,"o":"m 174 0 b 200 209 163 73 180 139 b 216 418 220 280 231 344 b 72 700 162 509 91 593 b 58 830 64 743 63 787 b 11 982 51 885 36 934 b 128 982 50 982 89 982 b 229 586 194 856 164 712 b 421 982 262 733 389 835 b 538 982 460 982 499 982 b 390 700 515 875 443 794 b 326 418 340 610 340 517 b 310 209 340 344 330 280 b 284 0 290 139 273 74 b 174 0 248 0 211 0 z m 228 1026 b 64 1230 172 1093 110 1156 b 158 1230 95 1230 126 1230 b 306 1026 198 1156 255 1093 b 228 1026 280 1026 254 1026 z "},"–":{"ha":544,"x_min":0,"x_max":0,"o":"m 81 344 b 56 455 78 382 68 418 b 464 455 192 455 328 455 b 489 344 476 418 486 382 b 81 344 353 344 217 344 z "},"—":{"ha":765,"x_min":0,"x_max":0,"o":"m 21 343 b 0 453 18 381 10 416 b 745 453 248 453 496 453 b 766 343 755 416 763 381 b 21 343 517 343 269 343 z "},"‘":{"ha":232,"x_min":0,"x_max":0,"o":"m 58 769 b 90 898 70 812 83 854 b 99 983 93 927 94 955 b 169 1041 107 1019 132 1042 b 187 1041 176 1041 180 1041 b 199 979 192 1020 196 1000 b 193 979 197 979 196 979 b 168 953 179 979 171 966 b 164 916 166 941 165 926 b 201 916 179 916 187 916 b 168 769 196 865 182 817 b 58 769 132 769 95 769 z "},"’":{"ha":215,"x_min":0,"x_max":0,"o":"m 157 1026 b 140 896 146 983 138 941 b 145 811 143 868 148 839 b 80 754 142 775 116 753 b 62 754 73 754 69 754 b 45 816 56 774 50 795 b 51 816 47 816 48 816 b 72 841 64 816 71 825 b 69 879 73 854 71 869 b 32 879 54 879 47 879 b 47 1026 27 930 34 977 b 157 1026 84 1026 120 1026 z "},"‚":{"ha":215,"x_min":0,"x_max":0,"o":"m 154 148 b 138 18 143 104 136 62 b 143 -67 140 -10 145 -39 b 77 -125 139 -104 113 -126 b 59 -125 70 -125 66 -125 b 42 -63 53 -104 47 -84 b 48 -63 44 -63 46 -63 b 70 -37 61 -63 68 -54 b 66 0 70 -25 68 -10 b 30 0 52 0 44 0 b 44 148 24 51 32 98 b 154 148 81 148 117 148 z "},"“":{"ha":385,"x_min":0,"x_max":0,"o":"m 58 743 b 90 872 70 786 83 828 b 99 957 93 901 94 929 b 169 1015 107 993 132 1016 b 187 1015 176 1015 180 1015 b 199 953 192 995 196 974 b 193 953 197 953 196 953 b 168 927 179 953 171 940 b 164 890 166 915 165 900 b 201 890 179 890 187 890 b 168 743 196 840 182 791 b 58 743 132 743 95 743 z m 212 743 b 243 872 224 786 236 828 b 253 957 247 901 247 929 b 322 1015 260 993 285 1016 b 340 1015 329 1015 333 1015 b 353 953 345 995 350 974 b 347 953 350 953 349 953 b 322 927 332 953 324 940 b 318 890 319 915 318 900 b 355 890 332 890 340 890 b 321 743 349 840 335 791 b 212 743 285 743 248 743 z "},"”":{"ha":385,"x_min":0,"x_max":0,"o":"m 327 1015 b 296 885 315 972 302 930 b 286 801 292 857 291 828 b 216 743 279 765 253 742 b 198 743 209 743 205 743 b 186 805 193 763 189 784 b 192 805 188 805 189 805 b 217 830 206 805 214 818 b 221 868 219 843 220 858 b 184 868 206 868 199 868 b 217 1015 189 918 203 966 b 327 1015 254 1015 290 1015 z m 174 1015 b 142 885 162 972 149 930 b 133 800 139 857 138 828 b 63 743 125 764 100 742 b 45 743 56 743 52 743 b 32 805 40 763 36 784 b 38 805 35 805 36 805 b 63 830 53 805 61 818 b 68 868 66 843 67 858 b 31 868 53 868 45 868 b 64 1015 36 918 50 966 b 174 1015 100 1015 137 1015 z "},"„":{"ha":385,"x_min":0,"x_max":0,"o":"m 324 149 b 293 19 312 106 300 63 b 283 -66 289 -9 289 -38 b 213 -124 276 -102 251 -124 b 196 -124 206 -124 203 -124 b 183 -62 191 -103 186 -83 b 189 -62 185 -62 187 -62 b 214 -36 203 -62 212 -49 b 218 1 216 -24 217 -9 b 181 1 203 1 196 1 b 214 149 186 52 201 100 b 324 149 251 149 287 149 z m 171 149 b 139 19 159 106 146 63 b 130 -66 136 -9 135 -38 b 60 -124 123 -102 97 -124 b 42 -124 53 -124 49 -124 b 30 -62 37 -103 33 -83 b 36 -62 32 -62 33 -62 b 61 -36 50 -62 58 -49 b 65 1 63 -24 64 -9 b 28 1 50 1 43 1 b 61 149 33 52 47 100 b 171 149 98 149 134 149 z "},"†":{"ha":519,"x_min":0,"x_max":0,"o":"m 241 -90 b 202 219 219 16 177 110 b 241 492 223 311 259 396 b 194 757 225 581 183 665 b 241 1074 208 867 260 961 b 351 1074 278 1074 315 1074 b 304 757 370 961 318 867 b 351 492 293 665 334 581 b 312 219 369 396 333 311 b 351 -90 287 110 329 16 b 241 -90 314 -90 278 -90 z m 104 694 b 83 804 101 732 93 768 b 415 804 194 804 304 804 b 436 694 425 768 433 732 b 104 694 326 694 215 694 z "},"•":{"ha":361,"x_min":0,"x_max":0,"o":"m 200 415 b 107 488 158 414 118 450 b 162 562 96 525 122 563 b 254 488 203 561 243 527 b 200 415 265 451 239 415 z "},"…":{"ha":601,"x_min":0,"x_max":0,"o":"m 407 0 b 422 148 402 51 409 98 b 532 148 459 148 495 148 b 517 0 519 98 512 51 b 407 0 481 0 444 0 z m 239 0 b 254 148 234 51 241 98 b 364 148 290 148 327 148 b 349 0 351 98 344 51 b 239 0 312 0 276 0 z m 71 0 b 86 148 66 51 73 98 b 196 148 122 148 159 148 b 181 0 183 98 176 51 b 71 0 144 0 108 0 z "},"‹":{"ha":386,"x_min":0,"x_max":0,"o":"m 183 182 b 44 347 141 241 97 297 b 172 513 91 399 131 456 b 328 513 224 513 276 513 b 200 347 286 456 247 399 b 339 182 252 297 296 241 b 183 182 287 182 235 182 z "},"›":{"ha":450,"x_min":0,"x_max":0,"o":"m 56 182 b 247 347 122 234 189 286 b 44 513 183 407 113 459 b 200 513 96 513 148 513 b 403 347 268 459 338 407 b 211 182 344 286 278 234 b 56 182 159 182 107 182 z "},"⁄":{"ha":439,"x_min":0,"x_max":0,"o":"m 17 0 b 125 264 30 97 86 176 b 157 491 158 339 160 411 b 199 718 154 573 163 644 b 300 982 240 805 292 884 b 413 982 338 982 375 982 b 312 718 405 884 353 805 b 270 491 276 644 267 573 b 238 264 273 411 271 339 b 130 0 199 176 143 97 b 17 0 92 0 54 0 z "},"−":{"ha":500,"x_min":0,"x_max":0,"o":"m 95 303 b 74 413 92 341 83 376 b 405 413 184 413 295 413 b 426 303 415 376 423 341 b 95 303 316 303 205 303 z "},"Ĉ":{"ha":567,"x_min":0,"x_max":0,"o":"m 287 0 b 118 67 226 0 161 23 b 85 228 74 112 70 170 b 106 373 98 275 109 323 b 79 498 103 415 91 457 b 53 615 68 536 57 575 b 73 767 47 667 59 717 b 174 929 90 828 129 885 b 330 995 216 970 270 996 b 506 948 391 995 452 980 b 519 940 511 944 514 943 b 493 797 518 890 507 844 b 459 835 482 809 470 822 b 332 885 426 872 378 885 b 183 767 266 886 201 831 b 163 615 169 717 158 667 b 189 498 167 575 178 536 b 216 373 201 457 213 415 b 195 228 219 323 208 275 b 284 110 177 165 219 110 b 433 160 339 110 388 130 b 489 199 452 173 470 186 b 463 56 475 151 464 105 b 451 48 458 53 456 51 b 287 0 399 16 347 1 b 287 0 287 0 287 0 z m 392 1024 b 307 1116 364 1055 335 1085 b 272 1024 295 1085 284 1054 b 185 1024 243 1024 214 1024 b 266 1201 211 1083 233 1144 b 314 1201 282 1201 298 1201 b 479 1024 365 1138 424 1082 b 392 1024 450 1024 421 1024 z "},"Ĕ":{"ha":540,"x_min":0,"x_max":0,"o":"m 81 0 b 123 272 67 96 103 179 b 104 491 139 348 125 417 b 85 711 83 565 68 634 b 127 982 105 803 141 886 b 497 982 250 982 373 982 b 496 872 502 944 502 910 b 236 872 410 872 323 872 b 195 711 226 818 207 766 b 198 551 183 656 186 605 b 402 551 266 551 334 551 b 432 441 412 514 423 477 b 228 441 364 441 296 441 b 234 275 241 385 245 332 b 191 110 222 220 203 166 b 451 110 278 110 365 110 b 451 0 446 72 445 38 b 81 0 328 0 204 0 z m 309 1040 b 195 1169 241 1040 195 1104 b 195 1185 195 1176 195 1179 b 254 1185 215 1185 234 1185 b 257 1175 256 1181 256 1179 b 328 1121 260 1141 299 1121 b 391 1175 356 1121 381 1149 b 394 1185 392 1179 393 1181 b 454 1185 414 1185 434 1185 b 455 1169 454 1179 454 1176 b 422 1078 459 1134 448 1102 b 309 1040 389 1047 355 1040 z "},"Ǧ":{"ha":626,"x_min":0,"x_max":0,"o":"m 287 0 b 118 67 226 0 161 23 b 85 228 74 112 70 170 b 106 373 98 275 109 323 b 79 498 103 415 91 457 b 53 615 68 536 57 575 b 73 767 47 667 59 717 b 174 929 90 828 129 885 b 330 995 216 970 270 996 b 506 948 391 995 452 980 b 519 940 511 944 514 943 b 493 797 518 890 507 844 b 459 835 482 809 470 822 b 332 885 426 872 378 885 b 240 851 299 886 266 872 b 183 767 214 830 192 800 b 163 615 169 717 158 667 b 189 498 167 575 178 536 b 216 373 201 457 213 415 b 195 228 219 323 208 275 b 207 144 189 199 188 169 b 284 110 225 120 256 111 b 399 138 323 109 363 120 b 438 416 421 233 455 317 b 302 416 392 416 347 416 b 273 524 294 452 283 488 b 519 524 355 524 437 524 b 551 304 540 452 562 381 b 500 85 539 230 509 160 b 490 76 496 81 494 80 b 287 0 428 28 366 2 b 287 0 287 0 287 0 z m 281 1032 b 115 1209 225 1091 166 1146 b 203 1209 144 1209 174 1209 b 282 1117 228 1177 254 1146 b 322 1209 293 1148 306 1179 b 410 1209 351 1209 381 1209 b 329 1032 377 1152 355 1091 b 281 1032 313 1032 297 1032 z "},"Ĝ":{"ha":626,"x_min":0,"x_max":0,"o":"m 287 0 b 118 67 226 0 161 23 b 85 228 74 112 70 170 b 106 373 98 275 109 323 b 79 498 103 415 91 457 b 53 615 68 536 57 575 b 73 767 47 667 59 717 b 174 929 90 828 129 885 b 330 995 216 970 270 996 b 506 948 391 995 452 980 b 519 940 511 944 514 943 b 493 797 518 890 507 844 b 459 835 482 809 470 822 b 332 885 426 872 378 885 b 240 851 299 886 266 872 b 183 767 214 830 192 800 b 163 615 169 717 158 667 b 189 498 167 575 178 536 b 216 373 201 457 213 415 b 195 228 219 323 208 275 b 207 144 189 199 188 169 b 284 110 225 120 256 111 b 399 138 323 109 363 120 b 438 416 421 233 455 317 b 302 416 392 416 347 416 b 273 524 294 452 283 488 b 519 524 355 524 437 524 b 551 304 540 452 562 381 b 500 85 539 230 509 160 b 490 76 496 81 494 80 b 287 0 428 28 366 2 b 287 0 287 0 287 0 z m 364 1024 b 279 1116 336 1055 307 1085 b 245 1024 268 1085 257 1054 b 157 1024 215 1024 186 1024 b 238 1201 183 1083 205 1144 b 286 1201 254 1201 270 1201 b 451 1024 337 1138 396 1082 b 364 1024 422 1024 393 1024 z "},"Ĭ":{"ha":318,"x_min":0,"x_max":0,"o":"m 81 0 b 123 272 67 96 103 179 b 104 491 139 348 125 417 b 85 711 83 565 68 634 b 127 982 105 803 141 886 b 237 982 163 982 200 982 b 195 711 251 886 215 803 b 214 491 178 634 193 565 b 233 272 235 417 249 348 b 191 0 213 179 177 96 b 81 0 155 0 118 0 z m 184 1040 b 70 1169 116 1040 70 1104 b 70 1185 70 1176 70 1179 b 129 1185 90 1185 109 1185 b 132 1175 131 1181 131 1179 b 203 1121 135 1141 174 1121 b 266 1175 231 1121 256 1149 b 269 1185 267 1179 268 1181 b 329 1185 289 1185 309 1185 b 330 1169 329 1179 329 1176 b 297 1078 334 1134 323 1102 b 184 1040 264 1047 230 1040 z "},"Ĩ":{"ha":318,"x_min":0,"x_max":0,"o":"m 81 0 b 123 272 67 96 103 179 b 104 491 139 348 125 417 b 85 711 83 565 68 634 b 127 982 105 803 141 886 b 237 982 163 982 200 982 b 195 711 251 886 215 803 b 214 491 178 634 193 565 b 233 272 235 417 249 348 b 191 0 213 179 177 96 b 81 0 155 0 118 0 z m 48 1086 b 51 1098 49 1091 49 1093 b 115 1165 59 1129 77 1165 b 169 1150 134 1165 152 1157 b 214 1135 183 1143 199 1135 b 238 1156 224 1134 231 1140 b 242 1166 240 1160 241 1162 b 299 1138 261 1157 280 1148 b 296 1127 298 1134 297 1132 b 232 1060 288 1095 270 1059 b 178 1075 213 1060 195 1067 b 133 1090 164 1081 148 1089 b 108 1068 123 1090 116 1084 b 104 1059 106 1064 106 1063 b 47 1086 85 1068 66 1077 z "},"Ŏ":{"ha":613,"x_min":0,"x_max":0,"o":"m 285 0 b 117 67 224 0 159 23 b 84 229 74 111 67 171 b 104 373 97 276 108 324 b 77 498 101 416 89 457 b 51 615 67 536 55 575 b 71 767 46 667 58 717 b 328 996 103 879 205 996 b 496 929 388 996 453 973 b 529 767 539 885 545 825 b 509 615 515 717 504 667 b 535 498 513 575 524 536 b 562 373 546 457 559 416 b 541 229 565 324 554 276 b 285 0 510 117 408 0 z m 330 886 b 181 767 263 886 199 830 b 161 615 167 717 156 667 b 187 498 165 575 176 536 b 214 373 199 457 211 416 b 194 229 218 324 207 276 b 283 110 176 166 216 110 b 431 229 350 110 413 166 b 452 373 444 276 455 324 b 425 498 449 416 437 457 b 399 615 414 536 403 575 b 419 767 394 667 405 717 b 330 886 437 830 396 886 z m 337 1040 b 222 1169 269 1040 222 1104 b 222 1185 222 1176 222 1179 b 282 1185 242 1185 262 1185 b 285 1175 284 1181 284 1179 b 356 1121 288 1141 326 1121 b 418 1175 384 1121 409 1149 b 422 1185 420 1179 421 1181 b 482 1185 442 1185 462 1185 b 483 1169 482 1179 482 1176 b 450 1078 486 1134 475 1102 b 337 1040 416 1047 383 1040 z "},"Ŝ":{"ha":556,"x_min":0,"x_max":0,"o":"m 238 0 b 61 48 176 1 114 15 b 48 56 56 51 53 53 b 73 198 49 105 60 151 b 108 160 85 185 96 173 b 236 110 142 124 188 111 b 388 232 303 109 370 167 b 223 497 421 350 303 433 b 55 791 131 572 16 657 b 281 996 84 891 170 997 b 458 948 343 995 404 981 b 471 940 463 945 466 943 b 446 798 470 891 459 845 b 411 836 434 811 423 823 b 283 886 378 873 330 885 b 165 791 230 887 179 842 b 283 573 138 699 221 626 b 498 232 384 486 542 387 b 260 1 468 127 374 12 b 261 0 260 1 260 1 b 238 0 252 0 247 0 z m 322 1024 b 237 1116 294 1055 266 1085 b 203 1024 226 1085 215 1054 b 115 1024 174 1024 144 1024 b 196 1201 142 1083 164 1144 b 244 1201 212 1201 228 1201 b 410 1024 295 1138 354 1083 b 322 1024 381 1024 351 1024 z "},"Ţ":{"ha":453,"x_min":0,"x_max":0,"o":"m 124 0 b 158 238 112 84 136 158 b 162 436 175 306 178 368 b 119 634 146 501 120 566 b 169 872 118 716 154 793 b 17 872 118 872 68 872 b 17 982 23 910 23 944 b 432 982 155 982 294 982 b 432 872 438 944 438 910 b 279 872 381 872 330 872 b 229 634 264 793 228 716 b 272 436 230 566 256 501 b 267 238 288 368 285 306 b 234 0 246 158 221 84 b 124 0 197 0 161 0 z m 182 -206 b 122 -182 160 -206 138 -196 b 105 -168 115 -177 112 -174 b 141 -125 117 -154 129 -140 b 157 -136 147 -129 151 -131 b 170 -140 162 -139 166 -140 b 186 -120 182 -140 189 -131 b 162 -99 184 -109 172 -100 b 153 -99 158 -99 156 -99 b 118 -68 141 -89 130 -78 b 142 0 126 -45 134 -23 b 217 0 167 0 192 0 b 192 -45 209 -15 200 -30 b 251 -105 218 -57 240 -79 b 256 -120 254 -110 255 -115 b 182 -206 268 -166 227 -206 z "},"Ț":{"ha":453,"x_min":0,"x_max":0,"o":"m 124 0 b 158 238 112 84 136 158 b 162 436 175 306 178 368 b 119 634 146 501 120 566 b 169 872 118 716 154 793 b 17 872 118 872 68 872 b 17 982 23 910 23 944 b 432 982 155 982 294 982 b 432 872 438 944 438 910 b 279 872 381 872 330 872 b 229 634 264 793 228 716 b 272 436 230 566 256 501 b 267 238 288 368 285 306 b 234 0 246 158 221 84 b 124 0 197 0 161 0 z m 232 -45 b 218 -142 222 -77 216 -109 b 222 -206 220 -163 224 -185 b 165 -249 219 -233 197 -250 b 150 -249 159 -249 156 -249 b 135 -202 145 -234 140 -218 b 140 -202 137 -202 138 -202 b 159 -183 152 -202 158 -196 b 156 -155 159 -174 157 -163 b 124 -155 143 -155 137 -155 b 137 -45 119 -117 126 -82 b 232 -45 168 -45 200 -45 z "},"Ŭ":{"ha":661,"x_min":0,"x_max":0,"o":"m 310 0 b 142 67 249 0 184 23 b 109 229 99 111 92 171 b 120 433 128 298 136 362 b 77 609 106 492 84 549 b 125 989 61 740 145 857 b 235 989 162 989 198 989 b 187 609 255 857 171 740 b 230 433 194 549 216 492 b 219 229 246 362 238 298 b 308 110 201 166 241 110 b 456 229 375 110 439 166 b 467 433 475 298 484 362 b 425 609 454 492 432 549 b 473 989 409 740 493 857 b 583 989 509 989 546 989 b 534 609 602 857 519 740 b 577 433 542 549 564 492 b 566 229 594 362 585 298 b 310 0 535 117 433 0 z m 323 1040 b 208 1169 255 1040 208 1104 b 208 1185 208 1176 208 1179 b 268 1185 228 1185 248 1185 b 271 1175 270 1181 270 1179 b 342 1121 274 1141 313 1121 b 405 1175 370 1121 395 1149 b 408 1185 406 1179 407 1181 b 468 1185 428 1185 448 1185 b 469 1169 468 1179 468 1176 b 436 1078 473 1134 462 1102 b 323 1040 403 1047 369 1040 z "},"Ũ":{"ha":661,"x_min":0,"x_max":0,"o":"m 310 0 b 142 67 249 0 184 23 b 109 229 99 111 92 171 b 120 433 128 298 136 362 b 77 609 106 492 84 549 b 125 989 61 740 145 857 b 235 989 162 989 198 989 b 187 609 255 857 171 740 b 230 433 194 549 216 492 b 219 229 246 362 238 298 b 308 110 201 166 241 110 b 456 229 375 110 439 166 b 467 433 475 298 484 362 b 425 609 454 492 432 549 b 473 989 409 740 493 857 b 583 989 509 989 546 989 b 534 609 602 857 519 740 b 577 433 542 549 564 492 b 566 229 594 362 585 298 b 310 0 535 117 433 0 z m 228 1086 b 231 1098 229 1091 230 1093 b 295 1165 240 1129 257 1165 b 349 1150 314 1165 332 1157 b 394 1135 363 1143 379 1135 b 419 1156 404 1134 411 1140 b 423 1166 420 1160 421 1162 b 480 1138 442 1157 461 1148 b 477 1127 478 1134 478 1132 b 412 1060 468 1095 450 1059 b 358 1075 393 1060 375 1067 b 313 1090 344 1081 328 1089 b 289 1068 303 1090 296 1084 b 284 1059 287 1064 286 1063 b 228 1086 266 1068 247 1077 z "},"ı":{"ha":318,"x_min":0,"x_max":0,"o":"m 81 0 b 123 272 67 96 103 179 b 104 491 139 348 125 417 b 85 711 83 565 68 634 b 127 982 105 803 141 886 b 237 982 163 982 200 982 b 195 711 251 886 215 803 b 214 491 178 634 193 565 b 233 272 235 417 249 348 b 191 0 213 179 177 96 b 81 0 155 0 118 0 z "},"«":{"ha":679,"x_min":0,"x_max":0,"o":"m 455 182 b 316 347 412 241 369 297 b 444 513 363 399 403 456 b 599 513 496 513 547 513 b 471 347 558 456 518 399 b 610 182 524 297 568 241 b 455 182 558 182 507 182 z m 208 182 b 69 347 166 241 122 297 b 197 513 116 399 156 456 b 353 513 249 513 301 513 b 225 347 311 456 272 399 b 364 182 277 297 321 241 b 208 182 312 182 260 182 z "},"»":{"ha":679,"x_min":0,"x_max":0,"o":"m 225 182 b 69 182 173 182 121 182 b 208 347 112 241 156 297 b 81 513 161 399 122 456 b 236 513 132 513 184 513 b 364 347 277 456 317 399 b 225 182 311 297 267 241 z m 471 182 b 316 182 419 182 368 182 b 455 348 358 241 402 297 b 327 513 408 399 368 456 b 482 513 379 513 431 513 b 610 348 524 456 563 399 b 471 182 557 297 514 241 z "},"€":{"ha":581,"x_min":0,"x_max":0,"o":"m 324 885 b 451 835 370 885 419 872 b 486 797 463 822 474 810 b 511 940 499 844 511 890 b 498 948 506 943 503 944 b 322 995 445 980 384 995 b 166 929 263 996 208 970 b 65 768 121 885 82 828 b 45 615 51 717 40 667 b 50 580 46 603 48 592 b 0 580 33 580 17 580 b 29 470 8 543 19 507 b 79 470 46 470 62 470 b 91 423 83 455 87 439 b 41 423 74 423 57 423 b 46 314 48 386 50 352 b 96 314 63 314 79 314 b 77 228 92 285 85 256 b 111 67 63 170 67 112 b 279 0 153 23 219 0 b 279 0 279 0 279 0 b 443 48 339 1 392 16 b 456 56 448 51 451 53 b 481 199 456 105 468 152 b 426 160 463 186 444 173 b 277 110 381 130 331 110 b 187 228 212 110 169 165 b 206 314 195 256 202 285 b 377 314 263 314 320 314 b 371 423 381 352 378 386 b 201 423 314 423 258 423 b 189 470 198 439 193 455 b 360 470 246 470 303 470 b 331 580 349 507 339 543 b 160 580 274 580 217 580 b 155 615 158 592 156 603 b 175 768 150 667 162 717 b 324 885 193 831 258 886 z "},"̈":{"ha":0,"x_min":0,"x_max":0,"o":"m -483 1058 b -513 1167 -492 1094 -503 1130 b -431 1167 -486 1167 -458 1167 b -402 1058 -422 1130 -411 1094 b -483 1058 -429 1058 -456 1058 z m -316 1058 b -346 1167 -326 1094 -336 1130 b -264 1167 -319 1167 -292 1167 b -235 1058 -255 1130 -244 1094 b -316 1058 -262 1058 -289 1058 z "},"̇":{"ha":0,"x_min":0,"x_max":0,"o":"m -316 1058 b -346 1167 -326 1094 -336 1130 b -264 1167 -319 1167 -292 1167 b -235 1058 -255 1130 -244 1094 b -316 1058 -262 1058 -289 1058 z "},"̀":{"ha":0,"x_min":0,"x_max":0,"o":"m -344 1026 b -508 1230 -400 1093 -462 1156 b -415 1230 -477 1230 -446 1230 b -267 1026 -375 1156 -318 1093 b -344 1026 -292 1026 -318 1026 z "},"́":{"ha":0,"x_min":0,"x_max":0,"o":"m -339 1032 b -263 1236 -316 1102 -298 1172 b -356 1236 -294 1236 -325 1236 b -417 1032 -387 1171 -399 1101 b -339 1032 -391 1032 -365 1032 z "},"̋":{"ha":0,"x_min":0,"x_max":0,"o":"m -396 1032 b -320 1236 -373 1102 -356 1172 b -413 1236 -351 1236 -382 1236 b -474 1032 -444 1171 -456 1101 b -396 1032 -448 1032 -422 1032 z m -285 1032 b -209 1236 -262 1101 -245 1172 b -302 1236 -240 1236 -271 1236 b -363 1032 -333 1171 -345 1101 b -285 1032 -337 1032 -311 1032 z "},"̂":{"ha":0,"x_min":0,"x_max":0,"o":"m -314 1024 b -399 1116 -342 1055 -371 1085 b -433 1024 -410 1085 -421 1054 b -521 1024 -463 1024 -492 1024 b -440 1201 -494 1083 -473 1144 b -392 1201 -424 1201 -408 1201 b -226 1024 -341 1138 -282 1083 b -314 1024 -256 1024 -285 1024 z "},"̌":{"ha":0,"x_min":0,"x_max":0,"o":"m -356 1032 b -521 1209 -411 1091 -470 1146 b -433 1209 -492 1209 -462 1209 b -355 1117 -409 1177 -382 1146 b -314 1209 -343 1148 -330 1179 b -226 1209 -285 1209 -256 1209 b -307 1032 -259 1152 -281 1091 b -356 1032 -323 1032 -339 1032 z "},"̆":{"ha":0,"x_min":0,"x_max":0,"o":"m -216 1040 b -330 1169 -284 1040 -330 1104 b -330 1185 -330 1176 -330 1179 b -270 1185 -310 1185 -290 1185 b -268 1175 -269 1181 -269 1179 b -197 1121 -265 1141 -226 1121 b -134 1175 -168 1121 -144 1149 b -131 1185 -133 1179 -132 1181 b -71 1185 -111 1185 -91 1185 b -70 1169 -71 1179 -71 1176 b -103 1078 -66 1134 -77 1102 b -216 1040 -136 1047 -170 1040 z "},"̊":{"ha":0,"x_min":0,"x_max":0,"o":"m -344 1209 b -415 1120 -391 1208 -428 1167 b -302 1032 -401 1074 -351 1032 b -238 1120 -255 1032 -224 1075 b -344 1209 -251 1165 -295 1209 z m -316 1084 b -363 1120 -337 1083 -357 1102 b -336 1157 -368 1137 -356 1158 b -290 1120 -315 1156 -296 1139 b -316 1084 -284 1102 -297 1084 z "},"̃":{"ha":0,"x_min":0,"x_max":0,"o":"m -473 1086 b -470 1098 -472 1091 -472 1093 b -406 1165 -462 1129 -445 1165 b -352 1150 -387 1165 -369 1157 b -307 1135 -338 1143 -322 1135 b -283 1156 -297 1134 -290 1140 b -279 1166 -281 1160 -280 1162 b -222 1138 -260 1157 -241 1148 b -225 1127 -223 1134 -224 1132 b -289 1060 -233 1095 -251 1059 b -343 1075 -308 1060 -326 1067 b -388 1090 -357 1081 -373 1089 b -413 1068 -398 1090 -405 1084 b -417 1059 -415 1064 -415 1063 b -474 1086 -436 1068 -455 1077 z "},"̄":{"ha":0,"x_min":0,"x_max":0,"o":"m -401 1064 b -420 1147 -402 1101 -411 1097 b -222 1147 -264 1147 -378 1147 b -203 1064 -213 1097 -204 1101 b -401 1064 -359 1064 -245 1064 z "},"̒":{"ha":0,"x_min":0,"x_max":0,"o":"m -140 1032 l -69 1032 l -69 1142 l -98 1142 b -75 1202 -98 1197 -91 1200 l -69 1203 l -69 1239 l -76 1239 b -140 1135 -140 1239 -140 1169 z "},"̦":{"ha":0,"x_min":0,"x_max":0,"o":"m -78 -45 b -92 -142 -87 -77 -94 -109 b -88 -206 -90 -163 -85 -185 b -144 -249 -90 -233 -113 -250 b -160 -249 -151 -249 -154 -249 b -175 -202 -165 -234 -170 -218 b -169 -202 -173 -202 -172 -202 b -151 -183 -158 -202 -152 -196 b -153 -155 -150 -174 -152 -163 b -186 -155 -166 -155 -173 -155 b -173 -45 -190 -117 -184 -82 b -78 -45 -141 -45 -109 -45 z "},"̧":{"ha":0,"x_min":0,"x_max":0,"o":"m -385 -206 b -445 -182 -406 -206 -428 -196 b -461 -168 -451 -177 -455 -174 b -426 -125 -449 -154 -437 -140 b -409 -136 -419 -129 -416 -131 b -396 -140 -405 -139 -401 -140 b -380 -120 -385 -140 -378 -131 b -405 -99 -383 -109 -394 -100 b -414 -99 -409 -99 -410 -99 b -448 -68 -425 -89 -437 -78 b -424 0 -441 -45 -433 -23 b -350 0 -399 0 -374 0 b -374 -45 -358 -15 -366 -30 b -315 -105 -349 -57 -327 -79 b -310 -120 -313 -110 -311 -115 b -385 -206 -299 -166 -340 -206 z "},"̨":{"ha":0,"x_min":0,"x_max":0,"o":"m -126 -222 b -168 -214 -142 -222 -153 -218 b -225 -138 -199 -204 -220 -170 b -159 -5 -234 -83 -193 -43 b -154 0 -157 -3 -156 -2 b -76 0 -125 0 -104 0 b -118 -53 -90 -18 -104 -35 b -138 -82 -124 -60 -134 -74 b -136 -139 -146 -98 -155 -128 b -119 -142 -131 -142 -125 -143 b -113 -142 -117 -142 -115 -142 b -94 -138 -109 -141 -106 -141 b -78 -136 -87 -137 -84 -137 b -81 -214 -77 -162 -80 -188 b -91 -216 -85 -215 -87 -215 b -126 -222 -100 -219 -111 -222 z "}}}
